<svg xmlns="http://www.w3.org/2000/svg" style="shape-rendering:geometricPrecision;text-rendering:geometricPrecision;image-rendering:optimizeQuality;fill-rule:evenodd;clip-rule:evenodd" width="14" height="14" viewBox="0 0 400 400"><path fill="#fefdfd" d="M-.5-.5h166c-1.526 1.63-3.526 2.463-6 2.5a124.763 124.763 0 0 0-16 .5 52.197 52.197 0 0 0 10 1.5 56.362 56.362 0 0 1-10 3.5 3.646 3.646 0 0 0 1 1.5c3.71.63 7.21.13 10.5-1.5 1.955.14 3.455.974 4.5 2.5 1.973.495 3.973.662 6 .5l-6 2a68.024 68.024 0 0 0-7 2c-9.804 1.825-19.137 4.825-28 9a89.673 89.673 0 0 0-16 8c-4.843 1.918-9.177 4.584-13 8-7.749 3.543-14.415 8.543-20 15-4.27 2.6-7.937 5.934-11 10-10.223 8.882-18.557 19.215-25 31-8.48 11.959-15.148 24.959-20 39a90.062 90.062 0 0 0-5 18c-2.83 7.956-4.497 16.289-5 25a149.639 149.639 0 0 0 0 34 292.327 292.327 0 0 0 2 24c-1.062 6.342.605 11.675 5 16 3.455 12.714 8.455 24.714 15 36 7.713 15.374 17.713 29.041 30 41 2 2.667 4.333 5 7 7a40.33 40.33 0 0 0 11 10c7.489 6.807 15.822 12.474 25 17a133.907 133.907 0 0 0 28 13l6 3c1.249 1.636 2.916 2.803 5 3.5a210.11 210.11 0 0 0 32 4.5c.418.722 1.084 1.222 2 1.5a361.07 361.07 0 0 0 38 0c.916-.278 1.582-.778 2-1.5h11c-1.452.802-3.118 1.302-5 1.5l1 1c19.666.024 19.666 1.691 0 5-.837 1.011-1.17 2.178-1 3.5-5.249 1.557-10.249.891-15-2a38.085 38.085 0 0 0 7-2.5l-2.5-.5c-7.102-.105-14.602.228-22.5 1-1.237-.056-2.237-.556-3-1.5 5.23-1.102 5.23-1.935 0-2.5a177.65 177.65 0 0 1-13 2c-4.921-.603-9.921-.603-15 0v4c3.35-.165 6.683.002 10 .5l-9 1c-.752.671-1.086 1.504-1 2.5H-.5V-.5Z" style="opacity:.502"/><path fill="#492996" d="M209.5 8.5a150.876 150.876 0 0 1 37 7 373.998 373.998 0 0 0-31-4.5c-7.993-.5-15.993-.666-24-.5h-5c-9.031.29-18.031.957-27 2l6-2a339.999 339.999 0 0 1 44-2Z" style="opacity:.827"/><path fill="#3d11a9" d="M191.5 10.5c8.007-.166 16.007 0 24 .5a373.998 373.998 0 0 1 31 4.5h4c.709.904 1.709 1.237 3 1l4 2a85.919 85.919 0 0 0-18-2c-5.1-1.63-10.434-2.797-16-3.5a8489.759 8489.759 0 0 0-32-2.5Z" style="opacity:1"/><path fill="#31a" d="M186.5 10.5a1126.747 1126.747 0 0 1-30 4.5c-2.497.412-4.497 1.578-6 3.5a61.536 61.536 0 0 1-10 2c.111-.617.444-1.117 1-1.5l7-1c1.091-1.55 2.424-2.717 4-3.5a68.024 68.024 0 0 1 7-2 323.666 323.666 0 0 1 27-2Z" style="opacity:.994"/><path fill="#f2e3fb" d="M250.5 15.5h-4a150.876 150.876 0 0 0-37-7 10.024 10.024 0 0 1 3-1 246.442 246.442 0 0 1 35 5.5c1.442.377 2.442 1.21 3 2.5Z" style="opacity:.502"/><path fill="#3509d5" d="M186.5 10.5h5c10.514.801 21.181 1.634 32 2.5 5.566.703 10.9 1.87 16 3.5-10.994.071-21.494-.595-31.5-2-1.892 1.117-2.725 2.784-2.5 5h-4v4h-4v4h-4v4h4c-.308 3.51-2.308 5.176-6 5 .289-3.606-.044-7.106-1-10.5-3.472-.023-5.138 1.81-5 5.5h4v4h-4c.175 6.197-.825 6.863-3 2a9.86 9.86 0 0 0-1 6h-4v4h4c.17 1.322-.163 2.489-1 3.5a213.033 213.033 0 0 1-10 4.5 17.765 17.765 0 0 1-2 8l-2-4c-2.798 1.453-5.798 2.453-9 3a16.868 16.868 0 0 0 8 1c.172 1.992-.495 3.659-2 5l-8 2a92.543 92.543 0 0 1-3 9l-2-4c-.547 3.202-1.547 6.202-3 9l-12 2c2.307 1.828 1.974 3.494-1 5-.547 3.202-1.547 6.202-3 9a45.892 45.892 0 0 1-10 4c-3.052 3.774-7.052 5.774-12 6a16.873 16.873 0 0 0 8 1c.172 1.992-.495 3.658-2 5l-9 3c.527 6.936-1.806 12.603-7 17a15.42 15.42 0 0 0-1 7h-3v-8c-1.83-.552-3.497-.552-5 0-2.963 1.942-4.63 4.608-5 8h4c.262 1.478-.071 2.811-1 4-4.681 2.696-6.681 6.696-6 12h-3a9.864 9.864 0 0 0-1-6 25.87 25.87 0 0 0-1 10h-4v4h-4v4h-4c.262 1.478-.071 2.811-1 4a32.455 32.455 0 0 0-2.5-6 50.442 50.442 0 0 0-.5 10h-4v4h-4v4h-4v4h4c.139 3.689-1.528 5.523-5 5.5-.625-2.8-1.292-5.634-2-8.5-1 .333-1.667 1-2 2a9.107 9.107 0 0 1 1 5h-4a9.864 9.864 0 0 1-1 6c-2.214-2.424-3.214-1.757-3 2h-3c.55 3.307.884 6.64 1 10-9.913.58-15.247 5.913-16 16-1.61-.406-2.942-.406-4 0a28.819 28.819 0 0 1 1 10 46.665 46.665 0 0 0-2.5-7c-.769-2.599-.602-5.099.5-7.5l-1.5-1.5a708.039 708.039 0 0 1-2.5-46 250.253 250.253 0 0 1 4-21c1.193-3.014 3.026-5.681 5.5-8 .168-2.677 1.001-5.01 2.5-7 .366-1.195 1.199-1.861 2.5-2 1.44.648 2.94.981 4.5 1-1.65-3.329-3.316-6.662-5-10 1.918-6.62 3.918-6.62 6 0l1-1.5c-2.808-3.69-2.641-7.19.5-10.5.497-2.31.663-4.643.5-7 2.405-1.187 4.739-2.687 7-4.5-1.247-3.994.253-6.494 4.5-7.5l2.5 3 1-1.5a9.818 9.818 0 0 1-2-5c.255-1.326.922-2.326 2-3l-2-1c2.309-.756 4.309-.256 6 1.5 2.907-3.86 2.074-5.193-2.5-4-.667-1.333-.667-2.667 0-4 2-.667 3.333-2 4-4a14.974 14.974 0 0 1 3.5 3 25.964 25.964 0 0 0 5-7c-2.107-1.987-2.274-3.987-.5-6a6.807 6.807 0 0 0 1.5 3c.966-3.492 3.466-6.159 7.5-8a10.1 10.1 0 0 0 1.5-6 4.932 4.932 0 0 1 3 .5c-1.196.654-1.196 1.154 0 1.5 2.077-1.488 3.077-3.488 3-6 3.291-2.35 6.291-5.184 9-8.5l4-1c-1.333-.667-1.333-1.333 0-2 1.925-1.595 3.925-1.761 6-.5 1.915-1.571 2.915-3.571 3-6a24.088 24.088 0 0 0 9-7c6.261-1.13 11.595-3.797 16-8a200.394 200.394 0 0 1 16-3 61.536 61.536 0 0 0 10-2c1.503-1.922 3.503-3.088 6-3.5a1126.747 1126.747 0 0 0 30-4.5Z" style="opacity:1"/><path fill="#341b96" d="M152.5 14.5c-1.576.783-2.909 1.95-4 3.5l-7 1c-.556.383-.889.883-1 1.5a200.394 200.394 0 0 0-16 3c8.863-4.175 18.196-7.175 28-9Z" style="opacity:1"/><path fill="#4707d8" d="M239.5 16.5v3c2.25-.319 4.25.181 6 1.5l-5.5 3.5c.356 2.514 1.523 2.68 3.5.5a49.248 49.248 0 0 1 14 0c.899 1.236 2.066 2.07 3.5 2.5 4.079-1.971 7.245-1.138 9.5 2.5-1.432.27-2.432-.396-3-2a8.435 8.435 0 0 0-4-.5c-.048 2.792 1.285 4.625 4 5.5-1.75 1.754-2.417 3.92-2 6.5-3.341.502-6.341 1.836-9 4l-2-2-5 5c.97 4.086-.364 7.42-4 10-1.189.929-2.522 1.262-4 1v6h-12a49.86 49.86 0 0 1-2 16h-4v8c-5.555-.957-9.555 1.043-12 6 2.877 3.686 2.544 7.02-1 10l-2-4a4.457 4.457 0 0 0-1.5 2c-1.85-2.26-2.35-4.594-1.5-7 1.586-2.771 2.086-5.771 1.5-9-6.273 9.735-8.107 9.068-5.5-2-.126-4.952-1.293-5.285-3.5-1 .011 4.326-1.989 7.326-6 9a8.43 8.43 0 0 0-.5 4c-1.478-.262-2.811.071-4 1 1.28 2.202 1.28 4.368 0 6.5-1.242.311-2.242-.189-3-1.5a714.756 714.756 0 0 1-6.5 7l-1-11c-2.946-3.043-4.112-2.376-3.5 2h-3v4h4c1.333 2.667 1.333 5.333 0 8h-15v8c-4.825-.512-8.158 1.488-10 6 2.717 3.612 2.051 6.612-2 9l-10 2c-4.051 2.388-4.717 5.388-2 9a14.506 14.506 0 0 1-4 5l-10 2c-1.673 2.023-2.34 4.356-2 7 2.135-.353 3.468.48 4 2.5a96.24 96.24 0 0 1-8 8.5c-.865 1.083-1.865 1.249-3 .5a20.499 20.499 0 0 0-2.5-3.5c-.71 1.473-1.876 2.14-3.5 2 .033 3.756 1.033 7.089 3 10h-4v4h-4v4h-4v4h4c.138 3.689-1.528 5.523-5 5.5a91.163 91.163 0 0 0-1.5-12.5l-1-1c-1.049 1.607-2.549 2.273-4.5 2 .273 1.951-.393 3.451-2 4.5 1.45 1.117 3.116 1.784 5 2 .837 1.011 1.17 2.178 1 3.5h-4v4h-6l-2 8h4c.171 1.992-.495 3.658-2 5-1.15 1.231-2.317 1.231-3.5 0 .42-4.114.087-8.114-1-12a89.809 89.809 0 0 1-7.5 5c1.214 1.569 2.88 2.402 5 2.5.837 1.011 1.17 2.178 1 3.5h-4v4h-4v4h-4v4h4c.13 2.737-1.036 4.737-3.5 6a3.944 3.944 0 0 1-2-1 26.708 26.708 0 0 0-1.5-7 9.864 9.864 0 0 0-1 6h-4v4h-4v4h-4v4h4c.13 2.737-1.036 4.737-3.5 6a3.944 3.944 0 0 1-2-1 26.708 26.708 0 0 0-1.5-7 9.864 9.864 0 0 0-1 6h-4v4h-6l-2 8h4c0 4-2 6-6 6-.178-3.602-1.178-3.602-3 0-.788-1.27-1.788-2.27-3-3a4.932 4.932 0 0 0-.5-3c-1.387 4.777-3.387 4.777-6 0a45.19 45.19 0 0 1-2.5-16 28.819 28.819 0 0 0-1-10c1.058-.406 2.39-.406 4 0 .753-10.087 6.087-15.42 16-16a76.944 76.944 0 0 0-1-10h3c-.214-3.757.786-4.424 3-2a9.864 9.864 0 0 0 1-6h4a9.107 9.107 0 0 0-1-5c.333-1 1-1.667 2-2 .708 2.866 1.375 5.7 2 8.5 3.472.023 5.139-1.811 5-5.5h-4v-4h4v-4h4v-4h4c-.165-3.35.002-6.683.5-10a32.455 32.455 0 0 1 2.5 6c.929-1.189 1.262-2.522 1-4h4v-4h4v-4h4a25.87 25.87 0 0 1 1-10 9.864 9.864 0 0 1 1 6h3c-.681-5.304 1.319-9.304 6-12 .929-1.189 1.262-2.522 1-4h-4c.37-3.392 2.037-6.058 5-8 1.503-.552 3.17-.552 5 0v8h3a15.42 15.42 0 0 1 1-7c5.194-4.397 7.527-10.064 7-17l9-3c1.505-1.342 2.172-3.008 2-5a16.873 16.873 0 0 1-8-1c4.948-.226 8.948-2.226 12-6a45.892 45.892 0 0 0 10-4c1.453-2.798 2.453-5.798 3-9 2.974-1.506 3.307-3.172 1-5l12-2c1.453-2.798 2.453-5.798 3-9l2 4a92.543 92.543 0 0 0 3-9l8-2c1.505-1.341 2.172-3.008 2-5a16.868 16.868 0 0 1-8-1c3.202-.547 6.202-1.547 9-3l2 4a17.765 17.765 0 0 0 2-8c3.319-1.39 6.652-2.89 10-4.5.837-1.011 1.17-2.178 1-3.5h-4v-4h4a9.86 9.86 0 0 1 1-6c2.175 4.863 3.175 4.197 3-2h4v-4h-4c-.138-3.69 1.528-5.523 5-5.5.956 3.394 1.289 6.894 1 10.5 3.692.176 5.692-1.49 6-5h-4v-4h4v-4h4v-4h4c-.225-2.216.608-3.883 2.5-5 10.006 1.405 20.506 2.071 31.5 2Z" style="opacity:1"/><path fill="#4a199d" d="M258.5 18.5a389.3 389.3 0 0 1 29 12v1c-4.793-.73-9.126-2.563-13-5.5l-7-1c-2.959-2.445-5.959-4.612-9-6.5Z" style="opacity:1"/><path fill="#f5e6fb" d="M287.5 30.5a389.3 389.3 0 0 0-29-12h-1l-4-2c3.277.284 6.443-.05 9.5-1 1.119 1.052 1.619 2.219 1.5 3.5a180.773 180.773 0 0 0 20 8c1.563.759 2.563 1.926 3 3.5Z" style="opacity:.502"/><path fill="#2f1989" d="M124.5 23.5c-4.405 4.203-9.739 6.87-16 8a89.673 89.673 0 0 1 16-8Z" style="opacity:.969"/><path fill="#2c188a" d="M108.5 31.5a24.088 24.088 0 0 1-9 7l-4 1c3.823-3.416 8.157-6.082 13-8Z" style="opacity:.878"/><path fill="#321d92" d="M95.5 39.5a2903.179 2903.179 0 0 1-20 15c5.585-6.457 12.251-11.457 20-15Z" style="opacity:.882"/><path fill="#f6e6fa" d="M288.5 31.5c2.436-.183 4.603.484 6.5 2a7.248 7.248 0 0 1 2.5-2c1 1.333 2 1.333 3 0l1 1-4 2a381.602 381.602 0 0 0 22 15.5c1.098.77 1.098 1.603 0 2.5a261.2 261.2 0 0 0-31-21Z" style="opacity:.502"/><path fill="#571da0" d="M287.5 31.5h1a261.2 261.2 0 0 1 31 21 25.634 25.634 0 0 1 6 6c-6.375-1.972-11.375-5.805-15-11.5a136.472 136.472 0 0 0-17-10c-2.337-1.634-4.337-3.467-6-5.5Z" style="opacity:.953"/><path fill="#2710b4" d="M99.5 38.5c-.085 2.429-1.085 4.429-3 6-2.075-1.261-4.075-1.095-6 .5-1.333.667-1.333 1.333 0 2l-4 1c-2.709 3.316-5.709 6.15-9 8.5a46.447 46.447 0 0 1-7 3.5c-1.484 5.316-4.817 8.816-10 10.5a17.908 17.908 0 0 0 4-6c3.063-4.066 6.73-7.4 11-10a2903.179 2903.179 0 0 0 20-15l4-1Z" style="opacity:1"/><path fill="#6505db" d="M330.5 67.5c-.17 1.322.163 2.489 1 3.5-1.783 1.067-2.283 2.567-1.5 4.5 2.368.869 3.868 2.535 4.5 5l-11 2-3 3-2-4a229.557 229.557 0 0 1-13 12.5c2.267.276 4.6.943 7 2 1.231 1.183 1.231 2.35 0 3.5a29.964 29.964 0 0 1-7 6c-4.626-2.742-7.96-1.409-10 4l2 4c-2.717 4.384-6.384 7.718-11 10l-2-4a21.53 21.53 0 0 0-5 6l2 4c-2 3.333-4.667 6-8 8a16.252 16.252 0 0 1-4.5-2c-3.369 2.276-4.202 5.276-2.5 9-1.834 1.998-2.834 4.332-3 7a85.378 85.378 0 0 0-10 3 82.279 82.279 0 0 1-10.5 16c-1.487.655-2.653 1.655-3.5 3a9.86 9.86 0 0 1-6 1c.303 3.088-1.03 4.754-4 5 .47 2.846-.363 5.179-2.5 7l-1-1c-1.154 2.457-2.488 2.457-4 0a31.84 31.84 0 0 1-4.5 5l4 2a24.16 24.16 0 0 1-5 6.5c.457.414.791.914 1 1.5-1.602 2.737-2.436 5.737-2.5 9-1.158.498-1.991 1.331-2.5 2.5a61.04 61.04 0 0 1-2 7.5c-2.343 1.496-3.676.829-4-2 2.097-2.659 3.764-5.659 5-9-.865-1.083-1.865-1.249-3-.5a79.697 79.697 0 0 0-16 17.5 37.138 37.138 0 0 1-4.5-2 20.2 20.2 0 0 1-1.5 6 14.506 14.506 0 0 0-4 5c-1.545.952-3.212 1.285-5 1a55.561 55.561 0 0 0 5-12h3c.591-3.175-.409-5.509-3-7 2.059-6.785 5.226-13.118 9.5-19 .495-1.973.662-3.973.5-6 .876.131 1.543-.202 2-1a1535.803 1535.803 0 0 1 24-47c1.663-1.938 2.329-4.272 2-7 4.462-1.447 8.129-4.113 11-8-1.189-.929-2.522-1.262-4-1-.262-1.478.071-2.811 1-4l7-7c1.189-.929 2.522-1.262 4-1-.262 1.478.071 2.811 1 4 1.066-7.891 4.733-14.225 11-19 1.189-.929 2.522-1.262 4-1v-4a9.864 9.864 0 0 1-6-1l5-5 2 2c2.659-2.164 5.659-3.498 9-4a53.777 53.777 0 0 1 4-13l1-1 2 2c4.833-2.335 8.5-5.835 11-10.5l-6-3c1.359-1.205 2.359-2.705 3-4.5 2.023-1.673 4.356-2.34 7-2a16.874 16.874 0 0 0 1 8 9.86 9.86 0 0 0 1-6c1.992.172 3.658-.495 5-2 .497-3.432 1.83-6.432 4-9a10.31 10.31 0 0 1 3-1c1.556 1.047 3.223 1.714 5 2a51.56 51.56 0 0 0-1 7 14.827 14.827 0 0 0 6.5-2 30.132 30.132 0 0 0 4.5 7.5 56.278 56.278 0 0 0 14 7.5Z" style="opacity:1"/><path fill="#29158f" d="M64.5 64.5a17.908 17.908 0 0 1-4 6 371.908 371.908 0 0 0-21 25c6.443-11.785 14.777-22.118 25-31Z" style="opacity:.941"/><path fill="#5c1c9b" d="m325.5 58.5 8 7a119.329 119.329 0 0 1 12 14 2.427 2.427 0 0 1-2-.5 52.035 52.035 0 0 0-8-9l-5-2.5a59.024 59.024 0 0 0-5-9Z" style="opacity:.922"/><path fill="#f7dffa" d="M333.5 65.5a4.932 4.932 0 0 1 3 .5 174.818 174.818 0 0 1 9.5 10.5 23.417 23.417 0 0 1 2.5 6 10.177 10.177 0 0 1-3-3 119.329 119.329 0 0 0-12-14Z" style="opacity:.502"/><path fill="#6d04db" d="m330.5 67.5 5 2.5a52.035 52.035 0 0 1 8 9 2.427 2.427 0 0 0 2 .5 129.637 129.637 0 0 1 9 17 10.526 10.526 0 0 1-2.5 3c-.72 1.612-.554 3.112.5 4.5-1.561.188-2.228-.645-2-2.5h-3c.262 1.478-.071 2.811-1 4-2.047.685-3.714 1.851-5 3.5 3.144 5.248 1.977 9.415-3.5 12.5a11.068 11.068 0 0 1-3.5-2l-4 4c-2.037-2.27-3.704-1.77-5 1.5.532 2.02 1.865 2.853 4 2.5-.52 4.19-2.853 6.857-7 8-1.874.11-3.374-.556-4.5-2-1.204 1.359-2.704 2.359-4.5 3-1.673 2.023-2.34 4.356-2 7h3a15.418 15.418 0 0 1-1 7 34.307 34.307 0 0 0-7.5 3c-1.767-.84-3.101-2.173-4-4-3.421 1.75-6.255 4.25-8.5 7.5.532 2.02 1.865 2.853 4 2.5-.021 3.035-1.354 5.368-4 7a4.457 4.457 0 0 0 2 1.5 26.49 26.49 0 0 1-7.5 4.5c-2.534-1.937-5.2-2.604-8-2-.569 2.514-.069 4.848 1.5 7a28.56 28.56 0 0 1-7.5 8 11.068 11.068 0 0 1-3.5-2c-2.963 1.942-4.629 4.608-5 8a18.453 18.453 0 0 1 6 .5c-4.026 3.512-8.692 5.679-14 6.5 2.729 1.867 2.396 2.867-1 3a8.43 8.43 0 0 0-.5-4 15.256 15.256 0 0 1-1.5 4.5c1.655 1.444 2.322 3.278 2 5.5h-1c-2.444-8.223-6.444-15.557-12-22 .937-4.795-.73-8.128-5-10-1.529.029-2.696.696-3.5 2a1572.973 1572.973 0 0 1-3.5 10h-3c.201 3.265-.966 5.931-3.5 8a436.267 436.267 0 0 0-1.5 11v1c-1.517.011-2.684.677-3.5 2a107.582 107.582 0 0 0-5 13c-3.076 3.706-5.576 7.706-7.5 12h-3c.359 2.266-.308 4.099-2 5.5.84 1.666.34 1.833-1.5.5a258.718 258.718 0 0 1-5.5 12c-.617.111-1.117.444-1.5 1a18.33 18.33 0 0 1-4-6 64.292 64.292 0 0 1-6.5 7 14.72 14.72 0 0 0 5 1.5c-2.995 5.504-7.328 9.337-13 11.5v4h-4c.262 1.478-.071 2.811-1 4a88.84 88.84 0 0 1-14.5 13c-1.732 8.129-5.565 15.129-11.5 21l-2-2a18.924 18.924 0 0 1-5 3 10.258 10.258 0 0 0 4 1.5 38.852 38.852 0 0 0-7 1.5 18.924 18.924 0 0 1-3 5l2 2-5 5-2-2c-5 2.333-8.667 6-11 11l2 2-5 5-2-2c-4.833 2.335-8.5 5.835-11 10.5 2.677.249 5.01 1.249 7 3a4.457 4.457 0 0 1-2 1.5c-2.596-.713-5.263-.713-8 0a69.264 69.264 0 0 0-17-9c-.359-1.871-1.359-3.371-3-4.5a21.968 21.968 0 0 0-8-5.5c-.763-3.885-3.096-6.219-7-7a106.916 106.916 0 0 1-7.5-12c-6.271-3.549-9.771-8.882-10.5-16-1.88.271-3.213-.396-4-2a9.107 9.107 0 0 1 5 1l4 9c.797-.457 1.13-1.124 1-2h4v7c2.327-.253 4.327.414 6 2a4.458 4.458 0 0 0 2-1.5 17.308 17.308 0 0 1-4-4.5c1.325-2.194 2.992-4.194 5-6 1.106 1.784 1.106 3.618 0 5.5.508 1.169 1.342 2.002 2.5 2.5 4.518-1.907 9.352-2.574 14.5-2-.166-5.011 0-10.011.5-15l1 1c2.942-5.468 7.442-8.135 13.5-8v-3h3c-.302 2.559.032 4.893 1 7-.268 1.599.066 2.932 1 4 3.141.821 6.475 1.321 10 1.5a240.38 240.38 0 0 0 31 0c5.182-2.527 7.682-6.694 7.5-12.5 3.647-3.89 5.48-8.556 5.5-14a317.064 317.064 0 0 1 9-11.5 3.647 3.647 0 0 1-1-1.5 117.219 117.219 0 0 0 10-23c1.933-1.142 3.433-2.808 4.5-5 1.665-4.663 3.831-8.996 6.5-13 2.591 1.491 3.591 3.825 3 7h-3a55.561 55.561 0 0 1-5 12c1.788.285 3.455-.048 5-1a14.506 14.506 0 0 1 4-5 20.2 20.2 0 0 0 1.5-6 37.138 37.138 0 0 0 4.5 2 79.697 79.697 0 0 1 16-17.5c1.135-.749 2.135-.583 3 .5-1.236 3.341-2.903 6.341-5 9 .324 2.829 1.657 3.496 4 2a61.04 61.04 0 0 0 2-7.5c.509-1.169 1.342-2.002 2.5-2.5.064-3.263.898-6.263 2.5-9a3.647 3.647 0 0 0-1-1.5 24.16 24.16 0 0 0 5-6.5l-4-2a31.84 31.84 0 0 0 4.5-5c1.512 2.457 2.846 2.457 4 0l1 1c2.137-1.821 2.97-4.154 2.5-7 2.97-.246 4.303-1.912 4-5a9.86 9.86 0 0 0 6-1c.847-1.345 2.013-2.345 3.5-3a82.279 82.279 0 0 0 10.5-16 85.378 85.378 0 0 1 10-3c.166-2.668 1.166-5.002 3-7-1.702-3.724-.869-6.724 2.5-9a16.252 16.252 0 0 0 4.5 2c3.333-2 6-4.667 8-8l-2-4a21.53 21.53 0 0 1 5-6l2 4c4.616-2.282 8.283-5.616 11-10l-2-4c2.04-5.409 5.374-6.742 10-4a29.964 29.964 0 0 0 7-6c1.231-1.15 1.231-2.317 0-3.5-2.4-1.057-4.733-1.724-7-2a229.557 229.557 0 0 0 13-12.5l2 4 3-3 11-2c-.632-2.465-2.132-4.131-4.5-5-.783-1.933-.283-3.433 1.5-4.5-.837-1.011-1.17-2.178-1-3.5Z" style="opacity:1"/><path fill="#5806d9" d="M239.5 16.5a85.919 85.919 0 0 1 18 2h1c3.041 1.888 6.041 4.055 9 6.5l7 1c3.874 2.937 8.207 4.77 13 5.5 1.663 2.033 3.663 3.866 6 5.5a136.472 136.472 0 0 1 17 10c3.625 5.695 8.625 9.528 15 11.5a59.024 59.024 0 0 1 5 9 56.278 56.278 0 0 1-14-7.5 30.132 30.132 0 0 1-4.5-7.5 14.827 14.827 0 0 1-6.5 2 51.56 51.56 0 0 1 1-7c-1.777-.286-3.444-.953-5-2a10.31 10.31 0 0 0-3 1c-2.17 2.568-3.503 5.568-4 9-1.342 1.505-3.008 2.172-5 2a9.86 9.86 0 0 1-1 6 16.874 16.874 0 0 1-1-8c-2.644-.34-4.977.327-7 2-.641 1.795-1.641 3.295-3 4.5l6 3c-2.5 4.665-6.167 8.165-11 10.5l-2-2-1 1a53.777 53.777 0 0 0-4 13c-3.341.502-6.341 1.836-9 4l-2-2-5 5a9.864 9.864 0 0 0 6 1v4c-1.478-.262-2.811.071-4 1-6.267 4.775-9.934 11.109-11 19-.929-1.189-1.262-2.522-1-4-1.478-.262-2.811.071-4 1l-7 7c-.929 1.189-1.262 2.522-1 4 1.478-.262 2.811.071 4 1-2.871 3.887-6.538 6.553-11 8a57.625 57.625 0 0 1-4-13h3c-.333-4.333-2.667-6.667-7-7v-6h-4c-1.199-5.047-3.532-9.547-7-13.5a12.648 12.648 0 0 1 4-2.5c-.85 2.406-.35 4.74 1.5 7a4.457 4.457 0 0 1 1.5-2l2 4c3.544-2.98 3.877-6.314 1-10 2.445-4.957 6.445-6.957 12-6v-8h4a49.86 49.86 0 0 0 2-16h12v-6c1.478.262 2.811-.071 4-1 3.636-2.58 4.97-5.914 4-10l5-5 2 2c2.659-2.164 5.659-3.498 9-4-.417-2.58.25-4.746 2-6.5-2.715-.875-4.048-2.708-4-5.5a8.435 8.435 0 0 1 4 .5c.568 1.604 1.568 2.27 3 2-2.255-3.638-5.421-4.471-9.5-2.5-1.434-.43-2.601-1.264-3.5-2.5a49.248 49.248 0 0 0-14 0c-1.977 2.18-3.144 2.014-3.5-.5l5.5-3.5c-1.75-1.319-3.75-1.819-6-1.5v-3Z" style="opacity:1"/><path fill="#661ea4" d="M345.5 79.5a10.177 10.177 0 0 0 3 3 284.67 284.67 0 0 1 12 19l-2-1-4-4a129.637 129.637 0 0 0-9-17Z" style="opacity:1"/><path fill="#501fa1" d="M212.5 124.5a10.165 10.165 0 0 1-3-3c-2.921-7.798-6.587-15.131-11-22a16.08 16.08 0 0 0-2-5c-.667-1.333-1.333-1.333-2 0a411.24 411.24 0 0 0-11 25 376.938 376.938 0 0 0-12 23c.886-5.04 1.886-10.04 3-15 1.322.17 2.489-.163 3.5-1a388.243 388.243 0 0 0 3.5-12 40.795 40.795 0 0 0 7-10 31.144 31.144 0 0 0 3-9c.891-.761 1.558-1.761 2-3 1.333-1.333 2.667-1.333 4 0 1.476 4.955 3.976 9.288 7.5 13a656.997 656.997 0 0 1 7.5 19Z" style="opacity:1"/><path fill="#f5dffc" d="M198.5 99.5c-1.701-.466-3.201-.466-4.5 0a91.945 91.945 0 0 0-8 20c-.77-1.098-1.603-1.098-2.5 0a411.24 411.24 0 0 1 11-25c.667-1.333 1.333-1.333 2 0a16.08 16.08 0 0 1 2 5Z" style="opacity:1"/><path fill="#301997" d="M39.5 95.5c-.662 4.32-2.662 7.987-6 11a47.127 47.127 0 0 0-3 10c-4.354 5.37-7.688 11.37-10 18h-1c4.852-14.041 11.52-27.041 20-39Z" style="opacity:1"/><path fill="#290bc8" d="M77.5 56.5c.077 2.512-.923 4.512-3 6-1.196-.346-1.196-.846 0-1.5a4.932 4.932 0 0 0-3-.5 10.1 10.1 0 0 1-1.5 6c-4.034 1.841-6.534 4.508-7.5 8a6.807 6.807 0 0 1-1.5-3c-1.774 2.013-1.607 4.013.5 6a25.964 25.964 0 0 1-5 7 14.974 14.974 0 0 0-3.5-3c-.667 2-2 3.333-4 4-.667 1.333-.667 2.667 0 4 4.574-1.193 5.407.14 2.5 4-1.691-1.756-3.691-2.256-6-1.5l2 1c-1.078.674-1.745 1.674-2 3a9.818 9.818 0 0 0 2 5l-1 1.5-2.5-3c-4.247 1.006-5.747 3.506-4.5 7.5-2.261 1.813-4.595 3.313-7 4.5a24.939 24.939 0 0 1-.5 7c-3.141 3.31-3.308 6.81-.5 10.5l-1 1.5c-2.082-6.62-4.082-6.62-6 0 1.684 3.338 3.35 6.671 5 10a11.184 11.184 0 0 1-4.5-1c-1.301.139-2.134.805-2.5 2-1.843-1.779-2.51-4.112-2-7 2.312-6.63 5.646-12.63 10-18a47.127 47.127 0 0 1 3-10c3.338-3.013 5.338-6.68 6-11a371.908 371.908 0 0 1 21-25c5.183-1.684 8.516-5.184 10-10.5a46.447 46.447 0 0 0 7-3.5Z" style="opacity:1"/><path fill="#fdfcfc" d="M198.5 99.5c4.413 6.869 8.079 14.202 11 22 2.77 5.298 4.77 10.632 6 16-.93 4.1-2.93 7.6-6 10.5a4.933 4.933 0 0 1 1 2.5c-1.771 2.756-2.771 5.756-3 9-3.19 7.713-6.857 15.047-11 22a224.825 224.825 0 0 0-5.5 7 434.712 434.712 0 0 0-10.5 26c-.91 3.492-2.576 6.492-5 9-2.654 2.334-3.988 5.334-4 9v1c-2.861.013-3.861 1.179-3 3.5a95.523 95.523 0 0 1-5.5 7.5c-1.183-1.231-2.349-1.231-3.5 0a54.031 54.031 0 0 1 2 5.5 29.82 29.82 0 0 0-3 8.5l-5 12a311.956 311.956 0 0 0-11 21c-1.422.25-2.422 1.083-3 2.5-12.329.5-24.662.667-37 .5a51.569 51.569 0 0 0 1-7c1.951-1.216 3.451-2.882 4.5-5a27.022 27.022 0 0 1 4-8 12.93 12.93 0 0 0 .5-5c2.806-2.254 4.639-5.254 5.5-9 1.972-.805 3.472-2.139 4.5-4a41.03 41.03 0 0 1 0-5.5 24.017 24.017 0 0 1 4.5-8.5 12.93 12.93 0 0 0 .5-5 110.95 110.95 0 0 0 5-13c2.79-3.916 4.79-8.249 6-13 1.841-2.349 3.174-5.015 4-8l2-2c2.887-3.956 5.22-8.29 7-13 1.72-1.434 3.72-2.267 6-2.5-.383-5.995.783-11.829 3.5-17.5.667-1.333 1.333-1.333 2 0l1-2a50.834 50.834 0 0 1 3.5-13 76.526 76.526 0 0 1 4-11 376.938 376.938 0 0 1 12-23c.897-1.098 1.73-1.098 2.5 0a91.945 91.945 0 0 1 8-20c1.299-.466 2.799-.466 4.5 0Z" style="opacity:1"/><path fill="#4f06d8" d="M191.5 95.5a31.144 31.144 0 0 1-3 9 40.795 40.795 0 0 1-7 10 388.243 388.243 0 0 1-3.5 12c-1.011.837-2.178 1.17-3.5 1a326.047 326.047 0 0 0-3 15c-3.291 3.59-5.291 7.924-6 13v1a422.036 422.036 0 0 0-8.5 7 73.619 73.619 0 0 1-2 11 89.454 89.454 0 0 0-4.5 12c-.996-.086-1.829.248-2.5 1a24.278 24.278 0 0 1-2.5 6 40 40 0 0 1-7 1c-.886-.825-1.219-1.825-1-3h-3c-.182 5.294-.682 5.294-1.5 0-.667-1.333-1.333-1.333-2 0 1.14 3.604.307 6.77-2.5 9.5a27.597 27.597 0 0 0-8.5 3.5 3.943 3.943 0 0 1-2-1c-.433 2.164.067 4.164 1.5 6-1.421 3.281-3.754 5.115-7 5.5a20.499 20.499 0 0 0-2.5-3.5c-.71 1.473-1.876 2.14-3.5 2v10h-3l-2 8a49.87 49.87 0 0 0-14 1c-2.494 2.916-2.494 5.916 0 9-1.565 3.576-4.232 5.576-8 6v24h-16v16h-15c-.34 2.491-1.34 4.658-3 6.5 1.718 2.562 2.718 5.395 3 8.5 6.135.427 6.468 1.761 1 4 .13.876-.203 1.543-1 2l-4-9a9.107 9.107 0 0 0-5-1c-2.343-3.036-4.343-6.37-6-10-.457-.798-1.124-1.131-2-1a245.204 245.204 0 0 0-7.5-20c-.586-3.229-.086-6.229 1.5-9 1.212.73 2.212 1.73 3 3 1.822-3.602 2.822-3.602 3 0 4 0 6-2 6-6h-4l2-8h6v-4h4a9.864 9.864 0 0 1 1-6 26.708 26.708 0 0 1 1.5 7 3.944 3.944 0 0 0 2 1c2.464-1.263 3.63-3.263 3.5-6h-4v-4h4v-4h4v-4h4a9.864 9.864 0 0 1 1-6 26.708 26.708 0 0 1 1.5 7 3.944 3.944 0 0 0 2 1c2.464-1.263 3.63-3.263 3.5-6h-4v-4h4v-4h4v-4h4c.17-1.322-.163-2.489-1-3.5-2.12-.098-3.786-.931-5-2.5a89.809 89.809 0 0 0 7.5-5c1.087 3.886 1.42 7.886 1 12 1.183 1.231 2.35 1.231 3.5 0 1.505-1.342 2.171-3.008 2-5h-4l2-8h6v-4h4c.17-1.322-.163-2.489-1-3.5-1.884-.216-3.55-.883-5-2 1.607-1.049 2.273-2.549 2-4.5 1.951.273 3.451-.393 4.5-2l1 1a91.163 91.163 0 0 1 1.5 12.5c3.472.023 5.138-1.811 5-5.5h-4v-4h4v-4h4v-4h4c-1.967-2.911-2.967-6.244-3-10 1.624.14 2.79-.527 3.5-2a20.499 20.499 0 0 1 2.5 3.5c1.135.749 2.135.583 3-.5a96.24 96.24 0 0 0 8-8.5c-.532-2.02-1.865-2.853-4-2.5-.34-2.644.327-4.977 2-7l10-2a14.506 14.506 0 0 0 4-5c-2.717-3.612-2.051-6.612 2-9l10-2c4.051-2.388 4.717-5.388 2-9 1.842-4.512 5.175-6.512 10-6v-8h15c1.333-2.667 1.333-5.333 0-8h-4v-4h3c-.612-4.376.554-5.043 3.5-2l1 11a714.756 714.756 0 0 0 6.5-7c.758 1.311 1.758 1.811 3 1.5 1.28-2.132 1.28-4.298 0-6.5 1.189-.929 2.522-1.262 4-1Z" style="opacity:1"/><path fill="#7117af" d="M360.5 101.5h1a163.818 163.818 0 0 1 10 22 18.473 18.473 0 0 1-3.5-2c-.341-2.687-1.674-4.687-4-6a282.286 282.286 0 0 0-3.5-14Z" style="opacity:1"/><path fill="#f9e5fb" d="M361.5 101.5c3.834 3.034 6.334 7.034 7.5 12 1.466-1.825 3.299-2.325 5.5-1.5-2.004 2.841-2.504 6.007-1.5 9.5a137.489 137.489 0 0 0 5 11c.495 1.973.662 3.973.5 6a153.054 153.054 0 0 0-7-15 163.818 163.818 0 0 0-10-22Z" style="opacity:.502"/><path fill="#540acd" d="M205.5 94.5a12.648 12.648 0 0 0-4 2.5c3.468 3.953 5.801 8.453 7 13.5h4v6c4.333.333 6.667 2.667 7 7h-3a57.625 57.625 0 0 0 4 13c.329 2.728-.337 5.062-2 7 .12-1.699.454-3.365 1-5 .047-1.538-.62-2.538-2-3 .05-4.545-1.617-8.211-5-11a656.997 656.997 0 0 0-7.5-19c-3.524-3.712-6.024-8.045-7.5-13-1.333-1.333-2.667-1.333-4 0-.442 1.239-1.109 2.239-2 3a8.43 8.43 0 0 1 .5-4c4.011-1.674 6.011-4.674 6-9 2.207-4.285 3.374-3.952 3.5 1-2.607 11.068-.773 11.735 5.5 2 .586 3.229.086 6.229-1.5 9Z" style="opacity:1"/><path fill="#7e03df" d="m354.5 96.5 4 4v4h-3v3c1.96-.638 3.793-.638 5.5 0-.598 2.661-.432 5.327.5 8 1.223 2.583 2.89 4.75 5 6.5a604.676 604.676 0 0 0-3 3.5c1.12 2.096 2.62 2.43 4.5 1l1 3c.654-1.196 1.154-1.196 1.5 0-2.248 2.237-3.581 4.904-4 8-1.643-.02-2.976.647-4 2-.131 5.551-2.465 9.885-7 13-3.202.547-6.202 1.547-9 3-.326 4.352-1.993 8.019-5 11a4.457 4.457 0 0 0 2 1.5 48.493 48.493 0 0 1-7 4.5c-.886-.825-1.219-1.825-1-3-4 0-6 2-6 6h4v4h-4v4h-6c.051 2.07-.615 3.903-2 5.5a3.943 3.943 0 0 0 1 2c1.884.216 3.551.883 5 2-1.607 1.049-2.273 2.549-2 4.5-1.951-.273-3.451.393-4.5 2l-3-6c-1.049 1.607-2.549 2.273-4.5 2a616.216 616.216 0 0 0-4 18c-1.951-.273-3.451.393-4.5 2a20.992 20.992 0 0 1-2.5-6c1.044-2.268 1.211-4.601.5-7-2.716-1.097-4.55-.097-5.5 3l2 4c-2.892 4.236-4.225 8.902-4 14a12.93 12.93 0 0 1 5 .5 46163.23 46163.23 0 0 0-10.5 9.5 16.252 16.252 0 0 0-4.5-2 1526.925 1526.925 0 0 0-6 5 10.756 10.756 0 0 0 2.5 3c.667-1.333 1.333-1.333 2 0l1 5c3.853 2.136 4.187 4.469 1 7 .107 3.057-1.06 5.391-3.5 7-1.446-.671-2.112-1.838-2-3.5a34.028 34.028 0 0 1 3-6.5c-1.063-2.261-2.396-4.261-4-6l-2.5 6c-1.583-2.411-2.583-5.078-3-8a154.85 154.85 0 0 1-8.5-15c-.961-1.765-1.295-3.765-1-6-4.58-1.846-5.913-5.179-4-10-.774-1.211-1.607-1.211-2.5 0-.717-.544-1.217-1.211-1.5-2 .322-2.222-.345-4.056-2-5.5a15.256 15.256 0 0 0 1.5-4.5 8.43 8.43 0 0 1 .5 4c3.396-.133 3.729-1.133 1-3 5.308-.821 9.974-2.988 14-6.5a18.453 18.453 0 0 0-6-.5c.371-3.392 2.037-6.058 5-8a11.068 11.068 0 0 0 3.5 2 28.56 28.56 0 0 0 7.5-8c-1.569-2.152-2.069-4.486-1.5-7 2.8-.604 5.466.063 8 2a26.49 26.49 0 0 0 7.5-4.5 4.457 4.457 0 0 1-2-1.5c2.646-1.632 3.979-3.965 4-7-2.135.353-3.468-.48-4-2.5 2.245-3.25 5.079-5.75 8.5-7.5.899 1.827 2.233 3.16 4 4a34.307 34.307 0 0 1 7.5-3 15.418 15.418 0 0 0 1-7h-3c-.34-2.644.327-4.977 2-7 1.796-.641 3.296-1.641 4.5-3 1.126 1.444 2.626 2.11 4.5 2 4.147-1.143 6.48-3.81 7-8-2.135.353-3.468-.48-4-2.5 1.296-3.27 2.963-3.77 5-1.5l4-4a11.068 11.068 0 0 0 3.5 2c5.477-3.085 6.644-7.252 3.5-12.5 1.286-1.649 2.953-2.815 5-3.5.929-1.189 1.262-2.522 1-4h3c-.228 1.855.439 2.688 2 2.5-1.054-1.388-1.22-2.888-.5-4.5a10.526 10.526 0 0 0 2.5-3Z" style="opacity:1"/><path fill="#7422a9" d="M371.5 123.5c2.607 4.88 4.94 9.88 7 15a128.748 128.748 0 0 1 2 11 241.82 241.82 0 0 0-4.5-9 106.219 106.219 0 0 1-4.5-17Z" style="opacity:.973"/><path fill="#5b25a3" d="M212.5 124.5c3.383 2.789 5.05 6.455 5 11a38.242 38.242 0 0 1-5-11Z" style="opacity:1"/><path fill="#f7e5fd" d="M209.5 121.5a10.165 10.165 0 0 0 3 3 38.242 38.242 0 0 0 5 11 5.576 5.576 0 0 0 1 3 309.293 309.293 0 0 1-11 21c.229-3.244 1.229-6.244 3-9a4.933 4.933 0 0 0-1-2.5c3.07-2.9 5.07-6.4 6-10.5-1.23-5.368-3.23-10.702-6-16Z" style="opacity:1"/><path fill="#2f13ac" d="M19.5 134.5h1c-.51 2.888.157 5.221 2 7-1.499 1.99-2.332 4.323-2.5 7-2.474 2.319-4.307 4.986-5.5 8v-4a90.062 90.062 0 0 1 5-18Z" style="opacity:1"/><path fill="#572ba1" d="M171.5 142.5a76.526 76.526 0 0 0-4 11l-2 2c.709-5.076 2.709-9.41 6-13Z" style="opacity:1"/><path fill="#551dae" d="M165.5 156.5a433.285 433.285 0 0 1-15 30 89.454 89.454 0 0 1 4.5-12 73.619 73.619 0 0 0 2-11 422.036 422.036 0 0 1 8.5-7Z" style="opacity:1"/><path fill="#8902df" d="m358.5 100.5 2 1a282.286 282.286 0 0 1 3.5 14c2.326 1.313 3.659 3.313 4 6a18.473 18.473 0 0 0 3.5 2 106.219 106.219 0 0 0 4.5 17 241.82 241.82 0 0 1 4.5 9 84.382 84.382 0 0 1 2 18c-1.29-.558-2.123-1.558-2.5-3-.318 1.561-1.151 2.728-2.5 3.5 2.766 4.133 4.433 8.633 5 13.5a133.081 133.081 0 0 1-15 4 41.333 41.333 0 0 1-2 10c-4.959 1.52-8.292 4.854-10 10l2 4-1 2c-2.798 1.453-5.798 2.453-9 3l-8 8c1.189.929 2.522 1.262 4 1 .392 5.414-1.941 8.58-7 9.5-.619-1.757-1.786-2.924-3.5-3.5a120.963 120.963 0 0 0-9.5 9 9.86 9.86 0 0 0 6 1c-1.079 4.265-3.579 7.599-7.5 10-1.714-.576-2.881-1.743-3.5-3.5-5.059.92-7.392 4.086-7 9.5h4c.34 2.644-.327 4.977-2 7a34.307 34.307 0 0 0-7.5 3c-6.139-3.573-9.639-1.906-10.5 5h4c-1.276 2.836-1.942 5.836-2 9a173.55 173.55 0 0 1-3-4c-1.032 10.145-2.532 9.811-4.5-1-.759-1.563-1.926-2.563-3.5-3a9.82 9.82 0 0 0-3-4 2644.515 2644.515 0 0 0-5.5-15 2057.818 2057.818 0 0 0-10.5-17v-1a57.403 57.403 0 0 1-2-9 154.85 154.85 0 0 0 8.5 15c.417 2.922 1.417 5.589 3 8l2.5-6c1.604 1.739 2.937 3.739 4 6a34.028 34.028 0 0 0-3 6.5c-.112 1.662.554 2.829 2 3.5 2.44-1.609 3.607-3.943 3.5-7 3.187-2.531 2.853-4.864-1-7l-1-5c-.667-1.333-1.333-1.333-2 0a10.756 10.756 0 0 1-2.5-3c2.025-1.696 4.025-3.363 6-5a16.252 16.252 0 0 1 4.5 2l10.5-9.5a12.93 12.93 0 0 0-5-.5c-.225-5.098 1.108-9.764 4-14l-2-4c.95-3.097 2.784-4.097 5.5-3 .711 2.399.544 4.732-.5 7a20.992 20.992 0 0 0 2.5 6c1.049-1.607 2.549-2.273 4.5-2a616.216 616.216 0 0 1 4-18c1.951.273 3.451-.393 4.5-2l3 6c1.049-1.607 2.549-2.273 4.5-2-.273-1.951.393-3.451 2-4.5-1.449-1.117-3.116-1.784-5-2a3.943 3.943 0 0 1-1-2c1.385-1.597 2.051-3.43 2-5.5h6v-4h4v-4h-4c0-4 2-6 6-6-.219 1.175.114 2.175 1 3a48.493 48.493 0 0 0 7-4.5 4.457 4.457 0 0 1-2-1.5c3.007-2.981 4.674-6.648 5-11 2.798-1.453 5.798-2.453 9-3 4.535-3.115 6.869-7.449 7-13 1.024-1.353 2.357-2.02 4-2 .419-3.096 1.752-5.763 4-8-.346-1.196-.846-1.196-1.5 0l-1-3c-1.88 1.43-3.38 1.096-4.5-1a604.676 604.676 0 0 1 3-3.5c-2.11-1.75-3.777-3.917-5-6.5-.932-2.673-1.098-5.339-.5-8-1.707-.638-3.54-.638-5.5 0v-3h3v-4Z" style="opacity:1"/><path fill="#842aae" d="M380.5 149.5a86.946 86.946 0 0 1 4 14 213.322 213.322 0 0 1 2 55c-1.389 4.769-2.056 9.769-2 15-1.031 2.461-1.698 5.127-2 8a195.123 195.123 0 0 1-9 26 314.259 314.259 0 0 0 4-17c4.597-11.816 7.097-24.149 7.5-37a306.347 306.347 0 0 0 0-35c-.242-3.93-1.075-7.597-2.5-11a84.382 84.382 0 0 0-2-18Z" style="opacity:.91"/><path fill="#5237a4" d="M14.5 152.5v4a250.253 250.253 0 0 0-4 21h-1c.503-8.711 2.17-17.044 5-25Z" style="opacity:.796"/><path fill="#5c22a6" d="M217.5 135.5c1.38.462 2.047 1.462 2 3a20.222 20.222 0 0 0-1 5 1535.803 1535.803 0 0 0-24 47c-.457.798-1.124 1.131-2 1l4-10c4.143-6.953 7.81-14.287 11-22a309.293 309.293 0 0 0 11-21 5.576 5.576 0 0 1-1-3Z" style="opacity:1"/><path fill="#671eb3" d="M243.5 185.5c-2.027-2.365-3.693-5.031-5-8a82.635 82.635 0 0 0-9 19l-6 10c.452-3.663.952-7.33 1.5-11 2.534-2.069 3.701-4.735 3.5-8h3c1.156-3.267 2.323-6.601 3.5-10 .804-1.304 1.971-1.971 3.5-2 4.27 1.872 5.937 5.205 5 10Z" style="opacity:1"/><path fill="#f5e5fc" d="M167.5 153.5a50.834 50.834 0 0 0-3.5 13l-1 2c-.667-1.333-1.333-1.333-2 0-2.717 5.671-3.883 11.505-3.5 17.5-2.28.233-4.28 1.066-6 2.5-1.78 4.71-4.113 9.044-7 13l6-15a433.285 433.285 0 0 0 15-30v-1l2-2Z" style="opacity:1"/><path fill="#9201e2" d="M382.5 181.5v18c-3.211.871-5.544 2.871-7 6a7.293 7.293 0 0 0 2 3 103.785 103.785 0 0 0-8.5 22c-.41-2.168-1.244-3.501-2.5-4l2-6c-.245-2.163-1.245-3.83-3-5-.539 2.711-1.872 4.877-4 6.5a11.295 11.295 0 0 1 2 4c-1.385 1.597-2.051 3.43-2 5.5-2.512-.077-4.512.923-6 3a16.873 16.873 0 0 1-8 1 16.873 16.873 0 0 1-1 8 63.726 63.726 0 0 0-9 10c1.254 1.834 1.921 3.834 2 6h-4v-4h-4c.262 1.478-.071 2.811-1 4l-7 7a13.116 13.116 0 0 1-7 1 42.945 42.945 0 0 1-3 12c-3.054.204-5.554 1.538-7.5 4l-1.5-.5a42.36 42.36 0 0 1-1.5-8.5c-2.042 5.054-1.875 10.054.5 15-.247 1.213-.914 1.88-2 2a45.556 45.556 0 0 0-4-12c.058-3.164.724-6.164 2-9h-4c.861-6.906 4.361-8.573 10.5-5a34.307 34.307 0 0 1 7.5-3c1.673-2.023 2.34-4.356 2-7h-4c-.392-5.414 1.941-8.58 7-9.5.619 1.757 1.786 2.924 3.5 3.5 3.921-2.401 6.421-5.735 7.5-10a9.86 9.86 0 0 1-6-1 120.963 120.963 0 0 1 9.5-9c1.714.576 2.881 1.743 3.5 3.5 5.059-.92 7.392-4.086 7-9.5-1.478.262-2.811-.071-4-1l8-8c3.202-.547 6.202-1.547 9-3l1-2-2-4c1.708-5.146 5.041-8.48 10-10a41.333 41.333 0 0 0 2-10 133.081 133.081 0 0 0 15-4Z" style="opacity:1"/><path fill="#531fa0" d="m150.5 186.5-6 15-2 2a43.521 43.521 0 0 1 3-10 24.278 24.278 0 0 0 2.5-6c.671-.752 1.504-1.086 2.5-1Z" style="opacity:1"/><path fill="#f6dbfc" d="M243.5 185.5a143.896 143.896 0 0 0 12 25l2 6c-.958-.453-1.792-1.119-2.5-2a9284.262 9284.262 0 0 1-15.5-31.5c-.832-.688-1.498-.521-2 .5a82.204 82.204 0 0 1-8 13 82.635 82.635 0 0 1 9-19c1.307 2.969 2.973 5.635 5 8Z" style="opacity:1"/><path fill="#f5ddfc" d="M196.5 181.5a29746.61 29746.61 0 0 0-4 10 376.938 376.938 0 0 0-12 23 434.712 434.712 0 0 1 10.5-26 224.825 224.825 0 0 1 5.5-7Z" style="opacity:1"/><path fill="#fde1fe" d="M384.5 163.5c1.527 3.713 2.527 7.713 3 12a241.183 241.183 0 0 1 .5 38c-.198 1.882-.698 3.548-1.5 5a213.322 213.322 0 0 0-2-55Z" style="opacity:.502"/><path fill="#6724a4" d="M243.5 185.5c5.556 6.443 9.556 13.777 12 22v3a143.896 143.896 0 0 1-12-25Z" style="opacity:1"/><path fill="#fdfcfc" d="M257.5 216.5a149.603 149.603 0 0 1 9 18 27.285 27.285 0 0 0 2 9c4.906 8.066 9.24 16.4 13 25 .457.798 1.124 1.131 2 1a18.453 18.453 0 0 0 .5 6 101.63 101.63 0 0 1 9.5 18 254.022 254.022 0 0 1-39 .5l-2.5-2.5a385.965 385.965 0 0 1-9.5-24 95.99 95.99 0 0 0-5-6v-1c-.342-.838-1.008-1.172-2-1a230.635 230.635 0 0 1-29-3c-1.024 1.353-2.357 2.02-4 2 .181-5.029 2.014-9.363 5.5-13l1-5c2-.667 3.333-2 4-4a198.257 198.257 0 0 1 5.5-17c1.79.513 3.456 1.013 5 1.5-1.195-3.909-1.195-8.075 0-12.5v-2l6-10a82.204 82.204 0 0 0 8-13c.502-1.021 1.168-1.188 2-.5a9284.262 9284.262 0 0 0 15.5 31.5c.708.881 1.542 1.547 2.5 2Z" style="opacity:1"/><path fill="#5c1daa" d="M192.5 191.5a18.453 18.453 0 0 1-.5 6c-4.274 5.882-7.441 12.215-9.5 19-2.669 4.004-4.835 8.337-6.5 13-1.067 2.192-2.567 3.858-4.5 5v-2c2.125-2.588 3.458-5.588 4-9 2.424-2.508 4.09-5.508 5-9a376.938 376.938 0 0 1 12-23Z" style="opacity:1"/><path fill="#6820ac" d="M223.5 207.5v1a680.917 680.917 0 0 1-16 31v-5c1.924-4.294 4.424-8.294 7.5-12a107.582 107.582 0 0 1 5-13c.816-1.323 1.983-1.989 3.5-2Z" style="opacity:1"/><path fill="#52229c" d="M138.5 211.5c-1.21 4.751-3.21 9.084-6 13 .253-5.22 2.253-9.553 6-13Z" style="opacity:1"/><path fill="#9801e1" d="M382.5 167.5c1.425 3.403 2.258 7.07 2.5 11a306.347 306.347 0 0 1 0 35c-.403 12.851-2.903 25.184-7.5 37-1.193-2.01-1.193-4.176 0-6.5-.51-1.826-1.344-1.993-2.5-.5l-.5-2a279.003 279.003 0 0 0 3-4.5 11.456 11.456 0 0 0-1-2.5c4.385-4.222 3.718-5.888-2-5-1.684 3.112-2.35 6.446-2 10h-3a72.367 72.367 0 0 1-.5 12c-1.813 1.109-2.646.442-2.5-2-1.643-.02-2.976.647-4 2a105.087 105.087 0 0 0-3 14 36.875 36.875 0 0 0-12 1c-1.453 2.798-2.453 5.798-3 9l-2-4a92.525 92.525 0 0 0-3 9l-2 1c-1.286-.352-2.119-1.018-2.5-2-4.768 2.722-4.268 4.222 1.5 4.5 1.26 1.814 1.26 3.647 0 5.5l-2-4a29.825 29.825 0 0 0-2 5c-1.506 1.247-3.006 1.247-4.5 0a12.93 12.93 0 0 0-.5 5c-1.175-.219-2.175.114-3 1a26.091 26.091 0 0 1-3.5 5c-1.044-1.123-1.71-2.456-2-4a29.517 29.517 0 0 1-4.5 2.5c-.837 1.011-1.17 2.178-1 3.5 1.478-.262 2.811.071 4 1l-4 4 1 2c-4.156.989-7.323 3.322-9.5 7-1.319-1.75-1.819-3.75-1.5-6-1.175-.219-2.175.114-3 1-1.834 1.998-2.834 4.332-3 7 1.478-.262 2.811.071 4 1l-9 9a9.86 9.86 0 0 0-1 6c1.603-.188 2.937.312 4 1.5a95.523 95.523 0 0 1-7.5 5.5 26.724 26.724 0 0 0-1.5-7l-6 6c-1.898-1.234-3.565-.901-5 1l2 2-5 5-2-2a10.756 10.756 0 0 1-3 2.5 32.065 32.065 0 0 0 4 2.5c7.758 2.518 15.258 2.184 22.5-1 1.235 1.115 2.402 1.115 3.5 0 1.022.355 1.689 1.022 2 2-.734 1.208-1.067 2.541-1 4a286.9 286.9 0 0 1-16 3c.762.411 1.762.577 3 .5.752.671 1.086 1.504 1 2.5l-15 7.5c-6.675 1.337-13.342 2.671-20 4a22.755 22.755 0 0 0-5 4 54.017 54.017 0 0 0-18.5 3.5c-24.921 2.939-49.754 2.606-74.5-1l-2-2c2.412.169 4.579-.497 6.5-2a45.538 45.538 0 0 0 13.5 3c.418.722 1.084 1.222 2 1.5a866.36 866.36 0 0 1 28 1.5 92.388 92.388 0 0 0 20-3c.424-2.854 1.424-5.521 3-8-.928-1.268-1.095-2.601-.5-4 2.235-.739 4.235-.739 6 0 1.429-4.932 4.596-7.932 9.5-9v-8h5c.973-5.167 3.806-9.167 8.5-12 1.767.84 3.101 2.173 4 4 1.049-1.607 2.549-2.273 4.5-2-.172-1.992.495-3.658 2-5-1.189-.929-2.522-1.262-4-1 1.762-4.949 4.928-8.949 9.5-12 1.767.84 3.101 2.173 4 4 1.049-1.607 2.549-2.273 4.5-2-.172-1.992.495-3.658 2-5-1.189-.929-2.522-1.262-4-1-.262-1.478.071-2.811 1-4l7-7a16.873 16.873 0 0 1 8-1c-.333-3 1-4.333 4-4a4.934 4.934 0 0 0 .5 3c3.456-1.048 4.956-3.381 4.5-7h3a9.86 9.86 0 0 0-1-6c-.929 1.189-1.262 2.522-1 4h-4a11.988 11.988 0 0 1 1-6c.925-1.062 1.925-1.062 3 0 1.086-.12 1.753-.787 2-2-2.375-4.946-2.542-9.946-.5-15a42.36 42.36 0 0 0 1.5 8.5l1.5.5c1.946-2.462 4.446-3.796 7.5-4a42.945 42.945 0 0 0 3-12 13.116 13.116 0 0 0 7-1l7-7c.929-1.189 1.262-2.522 1-4h4v4h4c-.079-2.166-.746-4.166-2-6a63.726 63.726 0 0 1 9-10 16.873 16.873 0 0 0 1-8c2.747.313 5.414-.02 8-1 1.488-2.077 3.488-3.077 6-3-.051-2.07.615-3.903 2-5.5a11.295 11.295 0 0 0-2-4c2.128-1.623 3.461-3.789 4-6.5 1.755 1.17 2.755 2.837 3 5l-2 6c1.256.499 2.09 1.832 2.5 4a103.785 103.785 0 0 1 8.5-22 7.293 7.293 0 0 1-2-3c1.456-3.129 3.789-5.129 7-6v-18c-.567-4.867-2.234-9.367-5-13.5 1.349-.772 2.182-1.939 2.5-3.5.377 1.442 1.21 2.442 2.5 3Z" style="opacity:1"/><path fill="#4f2f9e" d="M9.5 211.5a1835.245 1835.245 0 0 1 5 31 24.637 24.637 0 0 0-3-7 292.327 292.327 0 0 1-2-24Z" style="opacity:.882"/><path fill="#701bba" d="M255.5 207.5h1c.283.789.783 1.456 1.5 2 .893-1.211 1.726-1.211 2.5 0-1.913 4.821-.58 8.154 4 10-.295 2.235.039 4.235 1 6a57.403 57.403 0 0 0 2 9h-1a149.603 149.603 0 0 0-9-18l-2-6v-3Z" style="opacity:1"/><path fill="#f7c9fa" d="M386.5 218.5c.404 5.283-.262 10.283-2 15-.056-5.231.611-10.231 2-15Z" style="opacity:.502"/><path fill="#fefefd" d="M165.5-.5h234v400h-240c-.086-.996.248-1.829 1-2.5l9-1a50.464 50.464 0 0 0-10-.5v-4c5.079-.603 10.079-.603 15 0a177.65 177.65 0 0 0 13-2c5.23.565 5.23 1.398 0 2.5.763.944 1.763 1.444 3 1.5 7.898-.772 15.398-1.105 22.5-1l2.5.5a38.085 38.085 0 0 1-7 2.5c4.751 2.891 9.751 3.557 15 2-.17-1.322.163-2.489 1-3.5 19.666-3.309 19.666-4.976 0-5l-1-1c1.882-.198 3.548-.698 5-1.5a29.146 29.146 0 0 0 9-1c1.675-.368 2.675-1.368 3-3a268.53 268.53 0 0 1 20-5 769.171 769.171 0 0 1 21-6.5c2.135-.876 3.469-2.376 4-4.5a22.755 22.755 0 0 0 5-4l9-4a12.93 12.93 0 0 0 5-.5 193.893 193.893 0 0 1 12-11.5 6.547 6.547 0 0 1 3-3 19.177 19.177 0 0 0 5-2.5l23.5-23.5a42.47 42.47 0 0 0 1.5-5c4.731-2.739 8.064-6.739 10-12 4.864-2.627 6.531-6.627 5-12 2.033-1.663 3.866-3.663 5.5-6a85.13 85.13 0 0 1 7-16 174.909 174.909 0 0 1 5-14c.499-3.652.665-7.318.5-11 .302-2.873.969-5.539 2-8 1.738-4.717 2.404-9.717 2-15 .802-1.452 1.302-3.118 1.5-5 .833-12.68.666-25.346-.5-38-.473-4.287-1.473-8.287-3-12a86.946 86.946 0 0 0-4-14 128.748 128.748 0 0 0-2-11 18.453 18.453 0 0 0-.5-6 137.489 137.489 0 0 1-5-11c-1.004-3.493-.504-6.659 1.5-9.5-2.201-.825-4.034-.325-5.5 1.5-1.166-4.966-3.666-8.966-7.5-12h-1a284.67 284.67 0 0 0-12-19 23.417 23.417 0 0 0-2.5-6 174.818 174.818 0 0 0-9.5-10.5 4.932 4.932 0 0 0-3-.5l-8-7a25.634 25.634 0 0 0-6-6c1.098-.897 1.098-1.73 0-2.5a381.602 381.602 0 0 1-22-15.5l4-2-1-1c-1 1.333-2 1.333-3 0a7.248 7.248 0 0 0-2.5 2c-1.897-1.516-4.064-2.183-6.5-2h-1v-1c-.437-1.574-1.437-2.741-3-3.5a180.773 180.773 0 0 1-20-8c.119-1.281-.381-2.448-1.5-3.5-3.057.95-6.223 1.284-9.5 1-1.291.237-2.291-.096-3-1-.558-1.29-1.558-2.123-3-2.5a246.442 246.442 0 0 0-35-5.5 10.024 10.024 0 0 0-3 1 339.999 339.999 0 0 0-44 2 18.437 18.437 0 0 1-6-.5c-1.045-1.526-2.545-2.36-4.5-2.5-3.29 1.63-6.79 2.13-10.5 1.5a3.646 3.646 0 0 1-1-1.5 56.362 56.362 0 0 0 10-3.5 52.197 52.197 0 0 1-10-1.5 124.763 124.763 0 0 1 16-.5c2.474-.037 4.474-.87 6-2.5Z" style="opacity:.502"/><path fill="#efd1fb" d="M175.5 223.5c-.542 3.412-1.875 6.412-4 9 .012-3.666 1.346-6.666 4-9Z" style="opacity:1"/><path fill="#f8e6fc" d="M223.5 208.5c-1.195 4.425-1.195 8.591 0 12.5-1.544-.487-3.21-.987-5-1.5a198.257 198.257 0 0 0-5.5 17c-.667 2-2 3.333-4 4l-1 5c-3.486 3.637-5.319 7.971-5.5 13 1.643.02 2.976-.647 4-2a230.635 230.635 0 0 0 29 3 289.882 289.882 0 0 1-34-1 43.836 43.836 0 0 1-1-2v-2c3.116-4.57 5.45-9.57 7-15a680.917 680.917 0 0 0 16-31Z" style="opacity:1"/><path fill="#451ca9" d="M9.5 177.5h1a708.039 708.039 0 0 0 2.5 46l1.5 1.5c-1.102 2.401-1.269 4.901-.5 7.5a46.665 46.665 0 0 1 2.5 7 45.19 45.19 0 0 0 2.5 16c2.613 4.777 4.613 4.777 6 0 .483.948.65 1.948.5 3-1.586 2.771-2.086 5.771-1.5 9a245.204 245.204 0 0 1 7.5 20c-6.545-11.286-11.545-23.286-15-36a33.683 33.683 0 0 1-2-9 1835.245 1835.245 0 0 0-5-31 149.639 149.639 0 0 1 0-34Z" style="opacity:1"/><path fill="#5920a3" d="M132.5 224.5a110.95 110.95 0 0 1-5 13 376.938 376.938 0 0 1-12 23 437.011 437.011 0 0 0 9-25 716.74 716.74 0 0 0 8-11Z" style="opacity:1"/><path fill="#f7d5fc" d="M266.5 234.5h1v1a357.94 357.94 0 0 0 16 32v2c-.876.131-1.543-.202-2-1a209.772 209.772 0 0 0-13-25 27.285 27.285 0 0 1-2-9Z" style="opacity:1"/><path fill="#f6e7fc" d="M171.5 233.5v1l-13 24a29.82 29.82 0 0 1 3-8.5 54.031 54.031 0 0 0-2-5.5c1.151-1.231 2.317-1.231 3.5 0a95.523 95.523 0 0 0 5.5-7.5c-.861-2.321.139-3.487 3-3.5Z" style="opacity:1"/><path fill="#eddcf7" d="M11.5 235.5a24.637 24.637 0 0 1 3 7 33.683 33.683 0 0 0 2 9c-4.395-4.325-6.062-9.658-5-16Z" style="opacity:.502"/><path fill="#692ba6" d="M207.5 239.5c-1.55 5.43-3.884 10.43-7 15a209.096 209.096 0 0 1 3.5-11c.498-2.044 1.665-3.378 3.5-4Z" style="opacity:1"/><path fill="#740acf" d="M207.5 234.5v5c-1.835.622-3.002 1.956-3.5 4a209.096 209.096 0 0 0-3.5 11v2c-1.174 1.014-1.84 2.347-2 4-.509.841.157 1.341 2 1.5 10.995.5 21.995.667 33 .5-.396 2.982.271 5.649 2 8-1.189.929-2.522 1.262-4 1-.151-5.149-2.818-7.482-8-7a112.643 112.643 0 0 1-29-2.5c-.928-.388-1.595-1.055-2-2l4-4a14.093 14.093 0 0 1-1-3.5 258.718 258.718 0 0 0 5.5-12c1.84 1.333 2.34 1.166 1.5-.5 1.692-1.401 2.359-3.234 2-5.5h3Z" style="opacity:1"/><path fill="#7626aa" d="M267.5 235.5a2057.818 2057.818 0 0 1 10.5 17 2644.515 2644.515 0 0 1 5.5 15 357.94 357.94 0 0 1-16-32Z" style="opacity:1"/><path fill="#9f01e2" d="M377.5 250.5a314.259 314.259 0 0 1-4 17 224.628 224.628 0 0 0-14.5 27 39.027 39.027 0 0 1-4.5 4.5l1 1a100.876 100.876 0 0 1-17 20.5 179.207 179.207 0 0 1-11 15 33.052 33.052 0 0 1-6 2.5c-1.423 2.531-3.423 4.365-6 5.5a128.276 128.276 0 0 0-16 10c-.311-.978-.978-1.645-2-2-1.098 1.115-2.265 1.115-3.5 0-7.242 3.184-14.742 3.518-22.5 1a32.065 32.065 0 0 1-4-2.5 10.756 10.756 0 0 0 3-2.5l2 2 5-5-2-2c1.435-1.901 3.102-2.234 5-1l6-6a26.724 26.724 0 0 1 1.5 7 95.523 95.523 0 0 0 7.5-5.5c-1.063-1.188-2.397-1.688-4-1.5a9.86 9.86 0 0 1 1-6l9-9c-1.189-.929-2.522-1.262-4-1 .166-2.668 1.166-5.002 3-7 .825-.886 1.825-1.219 3-1-.319 2.25.181 4.25 1.5 6 2.177-3.678 5.344-6.011 9.5-7l-1-2 4-4c-1.189-.929-2.522-1.262-4-1-.17-1.322.163-2.489 1-3.5a29.517 29.517 0 0 0 4.5-2.5c.29 1.544.956 2.877 2 4a26.091 26.091 0 0 0 3.5-5c.825-.886 1.825-1.219 3-1a12.93 12.93 0 0 1 .5-5c1.494 1.247 2.994 1.247 4.5 0a29.825 29.825 0 0 1 2-5l2 4c1.26-1.853 1.26-3.686 0-5.5-5.768-.278-6.268-1.778-1.5-4.5.381.982 1.214 1.648 2.5 2l2-1a92.525 92.525 0 0 1 3-9l2 4c.547-3.202 1.547-6.202 3-9a36.875 36.875 0 0 1 12-1 105.087 105.087 0 0 1 3-14c1.024-1.353 2.357-2.02 4-2-.146 2.442.687 3.109 2.5 2 .499-3.986.666-7.986.5-12h3c-.35-3.554.316-6.888 2-10 5.718-.888 6.385.778 2 5 .431.793.765 1.627 1 2.5a279.003 279.003 0 0 1-3 4.5l.5 2c1.156-1.493 1.99-1.326 2.5.5-1.193 2.324-1.193 4.49 0 6.5Z" style="opacity:1"/><path fill="#fbe2fc" d="M382.5 241.5a60.931 60.931 0 0 1-.5 11 174.909 174.909 0 0 0-5 14 85.13 85.13 0 0 0-7 16c-1.634 2.337-3.467 4.337-5.5 6a97.26 97.26 0 0 0 9-21 195.123 195.123 0 0 0 9-26Z" style="opacity:.502"/><path fill="#5a06d9" d="M145.5 193.5a43.521 43.521 0 0 0-3 10c-.826 2.985-2.159 5.651-4 8-3.747 3.447-5.747 7.78-6 13a716.74 716.74 0 0 1-8 11 437.011 437.011 0 0 1-9 25 49.783 49.783 0 0 0-3 9l-2 2a14.698 14.698 0 0 0-3.5 3 176.902 176.902 0 0 0-8.5 17c-.968-2.107-1.302-4.441-1-7h-3v3c-6.058-.135-10.558 2.532-13.5 8l-1-1c-.5 4.989-.666 9.989-.5 15-5.148-.574-9.982.093-14.5 2-1.158-.498-1.992-1.331-2.5-2.5 1.106-1.882 1.106-3.716 0-5.5-2.008 1.806-3.675 3.806-5 6a17.308 17.308 0 0 0 4 4.5 4.458 4.458 0 0 1-2 1.5c-1.673-1.586-3.673-2.253-6-2v-7h-4c5.468-2.239 5.135-3.573-1-4-.282-3.105-1.282-5.938-3-8.5 1.66-1.842 2.66-4.009 3-6.5h15v-16h16v-24c3.768-.424 6.435-2.424 8-6-2.494-3.084-2.494-6.084 0-9a49.87 49.87 0 0 1 14-1l2-8h3v-10c1.624.14 2.79-.527 3.5-2a20.499 20.499 0 0 1 2.5 3.5c3.246-.385 5.579-2.219 7-5.5-1.433-1.836-1.933-3.836-1.5-6a3.943 3.943 0 0 0 2 1 27.597 27.597 0 0 1 8.5-3.5c2.807-2.73 3.64-5.896 2.5-9.5.667-1.333 1.333-1.333 2 0 .818 5.294 1.318 5.294 1.5 0h3c-.219 1.175.114 2.175 1 3a40 40 0 0 0 7-1Z" style="opacity:1"/><path fill="#f8e6fc" d="M127.5 237.5a12.93 12.93 0 0 1-.5 5 24.017 24.017 0 0 0-4.5 8.5 41.03 41.03 0 0 0 0 5.5c-1.028 1.861-2.528 3.195-4.5 4-.861 3.746-2.694 6.746-5.5 9a49.783 49.783 0 0 1 3-9 376.938 376.938 0 0 0 12-23Z" style="opacity:1"/><path fill="#fccdfe" d="M200.5 256.5c.304.65.637 1.317 1 2a289.882 289.882 0 0 0 34 1c.992-.172 1.658.162 2 1h-39c.16-1.653.826-2.986 2-4Z" style="opacity:1"/><path fill="#611f87" d="M201.5 260.5h36v2a8877.17 8877.17 0 0 1-36-2Z" style="opacity:1"/><path fill="#601da4" d="M171.5 234.5a117.219 117.219 0 0 1-10 23 3.647 3.647 0 0 0 1 1.5 317.064 317.064 0 0 0-9 11.5l5-12 13-24Z" style="opacity:1"/><path fill="#6c17ae" d="M198.5 260.5h3a8877.17 8877.17 0 0 0 36 2c1.037 1.43 1.704 3.097 2 5a104.081 104.081 0 0 1-6-5c-11.005.167-22.005 0-33-.5-1.843-.159-2.509-.659-2-1.5Z" style="opacity:1"/><path fill="#7703dd" d="M195.5 252.5a14.093 14.093 0 0 0 1 3.5l-4 4c.405.945 1.072 1.612 2 2a112.643 112.643 0 0 0 29 2.5 42.47 42.47 0 0 1-1.5 5l-1-1c-4.358.761-4.525 1.928-.5 3.5a54.43 54.43 0 0 1-10 11.5c-.929 1.189-1.262 2.522-1 4 1.478-.262 2.811.071 4 1a31.84 31.84 0 0 0-4.5 5c-1.319-1.75-1.819-3.75-1.5-6h-4c-1.221 7.332-5.221 12.499-12 15.5a20.2 20.2 0 0 1 6 1.5c-2.362 2.562-4.529 4.562-6.5 6a3.943 3.943 0 0 0-2-1c-1.597 1.385-3.43 2.051-5.5 2-.728 5.359-2.895 10.026-6.5 14a53.73 53.73 0 0 1-2.5-9 7.293 7.293 0 0 0-3 2c2.015 5.652.348 9.985-5 13-.617 4.034-2.451 7.367-5.5 10-1.123.524-2.456.524-4 0-6.062 3.995-9.229 9.662-9.5 17a107.91 107.91 0 0 0-11 4l-2-1c-1.428 2.155-1.761 4.321-1 6.5a18.453 18.453 0 0 1-6 .5 21.127 21.127 0 0 0-1-9c-2.306 1.752-2.64 3.919-1 6.5-.556 1.011-1.222 1.844-2 2.5-3.045-1.045-5.045-3.045-6-6-2.744.252-5.244-.415-7.5-2-1.465.83-2.965.996-4.5.5-2.749-2.69-5.749-4.856-9-6.5 2.737-.713 5.404-.713 8 0a4.457 4.457 0 0 0 2-1.5c-1.99-1.751-4.323-2.751-7-3 2.5-4.665 6.167-8.165 11-10.5l2 2 5-5-2-2c2.333-5 6-8.667 11-11l2 2 5-5-2-2a18.924 18.924 0 0 0 3-5 38.852 38.852 0 0 1 7-1.5 10.258 10.258 0 0 1-4-1.5 18.924 18.924 0 0 0 5-3l2 2c5.935-5.871 9.768-12.871 11.5-21a88.84 88.84 0 0 0 14.5-13c.929-1.189 1.262-2.522 1-4h4v-4c5.672-2.163 10.005-5.996 13-11.5a14.72 14.72 0 0 1-5-1.5 64.292 64.292 0 0 0 6.5-7 18.33 18.33 0 0 0 4 6c.383-.556.883-.889 1.5-1Z" style="opacity:1"/><path fill="#8202df" d="M233.5 262.5a104.081 104.081 0 0 0 6 5 506.17 506.17 0 0 0 8 24 20.69 20.69 0 0 1 1 5 30.321 30.321 0 0 0-5.5 5 4.934 4.934 0 0 0-.5 3h5c-1.887 3.73-4.387 7.064-7.5 10a4.934 4.934 0 0 1-.5-3c-5.286-.853-9.286.98-12 5.5a11.295 11.295 0 0 0 2 4 14.51 14.51 0 0 0-4.5 4.5c-3.221-3.228-4.721-2.562-4.5 2h-3l-3 12c-3.232 3.392-7.232 4.726-12 4a46.755 46.755 0 0 1-1 13 74.239 74.239 0 0 1-7.5 7c-1.767-.84-3.101-2.173-4-4-1.049 1.607-2.549 2.273-4.5 2a220.633 220.633 0 0 1-5 16c-2.619 2.073-5.619 3.073-9 3a45.538 45.538 0 0 1-13.5-3c-1.921 1.503-4.088 2.169-6.5 2-1.436-.929-2.769-2.095-4-3.5a111.68 111.68 0 0 1-24-7.5c.778-.656 1.444-1.489 2-2.5-1.64-2.581-1.306-4.748 1-6.5a21.127 21.127 0 0 1 1 9 18.453 18.453 0 0 0 6-.5c-.761-2.179-.428-4.345 1-6.5l2 1a107.91 107.91 0 0 1 11-4c.271-7.338 3.438-13.005 9.5-17 1.544.524 2.877.524 4 0 3.049-2.633 4.883-5.966 5.5-10 5.348-3.015 7.015-7.348 5-13a7.293 7.293 0 0 1 3-2 53.73 53.73 0 0 0 2.5 9c3.605-3.974 5.772-8.641 6.5-14 2.07.051 3.903-.615 5.5-2a3.943 3.943 0 0 1 2 1c1.971-1.438 4.138-3.438 6.5-6a20.2 20.2 0 0 0-6-1.5c6.779-3.001 10.779-8.168 12-15.5h4c-.319 2.25.181 4.25 1.5 6a31.84 31.84 0 0 1 4.5-5c-1.189-.929-2.522-1.262-4-1-.262-1.478.071-2.811 1-4a54.43 54.43 0 0 0 10-11.5c-4.025-1.572-3.858-2.739.5-3.5l1 1a42.47 42.47 0 0 0 1.5-5c5.182-.482 7.849 1.851 8 7 1.478.262 2.811-.071 4-1-1.729-2.351-2.396-5.018-2-8Z" style="opacity:1"/><path fill="#7c2ca6" d="M283.5 267.5a9.82 9.82 0 0 1 3 4c1.586 2.757 2.586 5.757 3 9a88.011 88.011 0 0 1-6-11v-2Z" style="opacity:1"/><path fill="#f6e0fd" d="M112.5 269.5a12.93 12.93 0 0 1-.5 5 27.022 27.022 0 0 0-4 8c-1.049 2.118-2.549 3.784-4.5 5a7821.66 7821.66 0 0 0 7-16l2-2Z" style="opacity:1"/><path fill="#7225aa" d="M239.5 267.5c4.751 8.555 8.751 17.555 12 27a12.066 12.066 0 0 1-4-3 506.17 506.17 0 0 1-8-24Z" style="opacity:1"/><path fill="#511da4" d="M31.5 287.5c.876-.131 1.543.202 2 1 1.657 3.63 3.657 6.964 6 10 .787 1.604 2.12 2.271 4 2 .729 7.118 4.229 12.451 10.5 16a106.916 106.916 0 0 0 7.5 12c-12.287-11.959-22.287-25.626-30-41Z" style="opacity:.949"/><path fill="#621aac" d="M153.5 270.5c-.02 5.444-1.853 10.11-5.5 14 .182 5.806-2.318 9.973-7.5 12.5a240.38 240.38 0 0 1-31 0c-3.525-.179-6.859-.679-10-1.5 13.671.167 27.337 0 41-.5a18.473 18.473 0 0 0 2-3.5 311.956 311.956 0 0 1 11-21Z" style="opacity:1"/><path fill="#8f25af" d="M373.5 267.5a97.26 97.26 0 0 1-9 21c-4.997 7.992-9.997 15.992-15 24a178.815 178.815 0 0 1-22 23 179.207 179.207 0 0 0 11-15 100.876 100.876 0 0 0 17-20.5l-1-1a39.027 39.027 0 0 0 4.5-4.5 224.628 224.628 0 0 1 14.5-27Z" style="opacity:.91"/><path fill="#591ba8" d="M110.5 271.5a7821.66 7821.66 0 0 1-7 16 57.692 57.692 0 0 0-4 8c-.934-1.068-1.268-2.401-1-4a176.902 176.902 0 0 1 8.5-17 14.698 14.698 0 0 1 3.5-3Z" style="opacity:1"/><path fill="#fbd8fe" d="M103.5 287.5a51.569 51.569 0 0 1-1 7c12.338.167 24.671 0 37-.5.578-1.417 1.578-2.25 3-2.5a18.473 18.473 0 0 1-2 3.5 840.27 840.27 0 0 1-41 .5 57.692 57.692 0 0 1 4-8Z" style="opacity:1"/><path fill="#fcd6fe" d="M237.5 262.5v-1a95.99 95.99 0 0 1 5 6 385.965 385.965 0 0 0 9.5 24l2.5 2.5c13.013.833 26.013.666 39-.5a101.63 101.63 0 0 0-9.5-18 18.453 18.453 0 0 1-.5-6 88.011 88.011 0 0 0 6 11 96.666 96.666 0 0 0 7 14.5c-15.172.828-30.172.661-45-.5-3.249-9.445-7.249-18.445-12-27-.296-1.903-.963-3.57-2-5Z" style="opacity:1"/><path fill="#fbe5fc" d="M364.5 288.5c1.531 5.373-.136 9.373-5 12-1.936 5.261-5.269 9.261-10 12 5.003-8.008 10.003-16.008 15-24Z" style="opacity:.502"/><path fill="#8b0bd1" d="M286.5 271.5c1.574.437 2.741 1.437 3.5 3 1.968 10.811 3.468 11.145 4.5 1a173.55 173.55 0 0 0 3 4 45.556 45.556 0 0 1 4 12c-1.075-1.062-2.075-1.062-3 0a11.988 11.988 0 0 0-1 6h4c-.262-1.478.071-2.811 1-4a9.86 9.86 0 0 1 1 6h-3c.456 3.619-1.044 5.952-4.5 7a4.934 4.934 0 0 1-.5-3v-3h-4c-.548 4.461-2.215 4.961-5 1.5-10.94-1.048-21.773-.548-32.5 1.5l-2.5-1c1.189-.929 2.522-1.262 4-1v-3c-2.436-.183-4.603.484-6.5 2 .331-1.519.164-2.852-.5-4a20.69 20.69 0 0 0-1-5 12.066 12.066 0 0 0 4 3c14.828 1.161 29.828 1.328 45 .5a96.666 96.666 0 0 1-7-14.5c-.414-3.243-1.414-6.243-3-9Z" style="opacity:1"/><path fill="#9001e1" d="M248.5 296.5c.664 1.148.831 2.481.5 4 1.897-1.516 4.064-2.183 6.5-2v3c-1.478-.262-2.811.071-4 1l2.5 1c10.727-2.048 21.56-2.548 32.5-1.5 2.785 3.461 4.452 2.961 5-1.5h4v3c-3-.333-4.333 1-4 4a16.873 16.873 0 0 0-8 1l-7 7c-.929 1.189-1.262 2.522-1 4 1.478-.262 2.811.071 4 1-1.505 1.342-2.172 3.008-2 5-1.951-.273-3.451.393-4.5 2-.899-1.827-2.233-3.16-4-4-4.572 3.051-7.738 7.051-9.5 12 1.478-.262 2.811.071 4 1-1.505 1.342-2.172 3.008-2 5-1.951-.273-3.451.393-4.5 2-.899-1.827-2.233-3.16-4-4-4.694 2.833-7.527 6.833-8.5 12h-5v8c-4.904 1.068-8.071 4.068-9.5 9-1.765-.739-3.765-.739-6 0-.595 1.399-.428 2.732.5 4-1.576 2.479-2.576 5.146-3 8a92.388 92.388 0 0 1-20 3 866.36 866.36 0 0 0-28-1.5c-.916-.278-1.582-.778-2-1.5 3.381.073 6.381-.927 9-3a220.633 220.633 0 0 0 5-16c1.951.273 3.451-.393 4.5-2 .899 1.827 2.233 3.16 4 4a74.239 74.239 0 0 0 7.5-7 46.755 46.755 0 0 0 1-13c4.768.726 8.768-.608 12-4l3-12h3c-.221-4.562 1.279-5.228 4.5-2a14.51 14.51 0 0 1 4.5-4.5 11.295 11.295 0 0 1-2-4c2.714-4.52 6.714-6.353 12-5.5a4.934 4.934 0 0 0 .5 3c3.113-2.936 5.613-6.27 7.5-10h-5a4.934 4.934 0 0 1 .5-3 30.321 30.321 0 0 1 5.5-5Z" style="opacity:1"/><path fill="#fadafc" d="M349.5 312.5a42.47 42.47 0 0 1-1.5 5L324.5 341a19.177 19.177 0 0 1-5 2.5 45.408 45.408 0 0 0 8-8 178.815 178.815 0 0 0 22-23Z" style="opacity:.502"/><path fill="#4d138d" d="M61.5 328.5c3.904.781 6.237 3.115 7 7-2.667-2-5-4.333-7-7Z" style="opacity:.875"/><path fill="#5c209b" d="M68.5 335.5a21.968 21.968 0 0 1 8 5.5c1.641 1.129 2.641 2.629 3 4.5a40.33 40.33 0 0 1-11-10Z" style="opacity:.929"/><path fill="#9027ae" d="M327.5 335.5a45.408 45.408 0 0 1-8 8 6.547 6.547 0 0 0-3 3 71.12 71.12 0 0 0-12 8 2.428 2.428 0 0 1 .5-2 160.91 160.91 0 0 0 10.5-9c2.577-1.135 4.577-2.969 6-5.5a33.052 33.052 0 0 0 6-2.5Z" style="opacity:.898"/><path fill="#9815c3" d="M315.5 343.5a160.91 160.91 0 0 1-10.5 9 2.428 2.428 0 0 0-.5 2 21.614 21.614 0 0 0-5 4l-9 4c-1.459-.067-2.792.266-4 1 .086-.996-.248-1.829-1-2.5-1.238.077-2.238-.089-3-.5a286.9 286.9 0 0 0 16-3c-.067-1.459.266-2.792 1-4a128.276 128.276 0 0 1 16-10Z" style="opacity:.988"/><path fill="#fbdafc" d="M316.5 346.5a193.893 193.893 0 0 0-12 11.5 12.93 12.93 0 0 1-5 .5 21.614 21.614 0 0 1 5-4 71.12 71.12 0 0 1 12-8Z" style="opacity:.502"/><path fill="#661e9d" d="M104.5 362.5a18.453 18.453 0 0 1 6 .5 363.947 363.947 0 0 0 22 12.5 133.907 133.907 0 0 1-28-13Z" style="opacity:.949"/><path fill="#fde1fe" d="M285.5 366.5c-.531 2.124-1.865 3.624-4 4.5a769.171 769.171 0 0 0-21 6.5 427.1 427.1 0 0 1 25-11Z" style="opacity:.502"/><path fill="#6f12be" d="M79.5 345.5a69.264 69.264 0 0 1 17 9c3.251 1.644 6.251 3.81 9 6.5 1.535.496 3.035.33 4.5-.5 2.256 1.585 4.756 2.252 7.5 2 .955 2.955 2.955 4.955 6 6a111.68 111.68 0 0 0 24 7.5c1.231 1.405 2.564 2.571 4 3.5a12385.78 12385.78 0 0 0-19-4 363.947 363.947 0 0 1-22-12.5 18.453 18.453 0 0 0-6-.5c-9.178-4.526-17.511-10.193-25-17Z" style="opacity:1"/><path fill="#742ca2" d="M132.5 375.5a12385.78 12385.78 0 0 1 19 4l2 2a240.522 240.522 0 0 1-15-3l-6-3Z" style="opacity:.749"/><path fill="#fce4fd" d="M138.5 378.5a240.522 240.522 0 0 0 15 3 193.823 193.823 0 0 0 22 5 210.11 210.11 0 0 1-32-4.5c-2.084-.697-3.751-1.864-5-3.5Z" style="opacity:.502"/><path fill="#8826b2" d="M290.5 362.5a22.755 22.755 0 0 1-5 4 427.1 427.1 0 0 0-25 11 268.53 268.53 0 0 0-20 5 814.172 814.172 0 0 0-23 4 239.292 239.292 0 0 1-42 0 193.823 193.823 0 0 1-22-5c24.746 3.606 49.579 3.939 74.5 1a54.017 54.017 0 0 1 18.5-3.5 22.755 22.755 0 0 1 5-4c6.658-1.329 13.325-2.663 20-4l15-7.5c1.208-.734 2.541-1.067 4-1Z" style="opacity:.906"/><path fill="#f8defb" d="M240.5 382.5c-.325 1.632-1.325 2.632-3 3a29.146 29.146 0 0 1-9 1h-11a814.172 814.172 0 0 1 23-4Z" style="opacity:.502"/><path fill="#fde3fe" d="M175.5 386.5a239.292 239.292 0 0 0 42 0c-.418.722-1.084 1.222-2 1.5a361.07 361.07 0 0 1-38 0c-.916-.278-1.582-.778-2-1.5Z" style="opacity:.502"/></svg>