<svg xmlns="http://www.w3.org/2000/svg" viewBox="0 0 24 24" width="14" height="14"><path fill="#ED8B00" d="M8.851 18.56s.34.214.748.214c.609 0 .946-.244 1.421-.853.845-1.089.748-1.644.567-1.644-.148 0-.337.09-.337.09s.09-.214.36-.214c.303 0 .567.09.748.18 0 0-.027-.027-.09-.027-.608-.123-2.297-.215-2.297 1.208 0 .853.567 1.139.861 1.139zm-3.968-2.384s-.096-.303.09-.547c.185-.241.852-1.027 2.024-1.24.006-.001.013 0 .019-.002.403-.03.815-.034 1.223-.012.104-.242.24-.464.394-.663-.488-.054-.972-.034-1.439.063-.596.091-.907.245-.907.245s-.213-.121-.516-.03c-.307.094-.607.516-.518.848.056.181.212.354.467.425.245.072.488-.03.638-.152l-.091.152s-.27.061-.597-.061c-.327-.122-.6-.333-.718-.575-.059-.121-.078-.182-.078-.182zm11.729-3.52c-.333-.154-.577-.28-.577-.28s.03-.153.183-.245c.088-.055.213-.092.366-.123.181-.031.394-.061.577-.092 0 0-.006-.215.061-.425.061-.214.244-.425.547-.577.123-.061.334-.153.577-.153.061 0 .119.003.179.006.12-.208.219-.424.302-.644-.153 0-.307-.006-.455-.006-.425 0-.908.031-1.271.154-.244.09-.517.244-.698.425 0 0-.183-.122-.425-.03-.241.09-.456.333-.425.638.031.214.153.517.425.759 0 0-.061-.03-.061-.061-.031-.154-.061-.307-.061-.456 0-.153.061-.333.153-.455.061-.091.153-.183.244-.244a2.448 2.448 0 0 1-.214-.394c-.031-.061-.061-.152-.061-.213 0-.154.03-.307.061-.425.061-.214.214-.425.425-.577.122-.091.334-.183.577-.243.122-.031.334-.061.517-.061h.638c.061 0 .122.003.181.006-.485-.298-1.035-.526-1.607-.663-.061-.154-.152-.307-.244-.425-.061-.061-.153-.183-.244-.214-.091-.031-.181-.061-.272-.061h-.031c-.091 0-.153.03-.213.061-.183.122-.334.334-.517.577-.031.061-.061.122-.061.183 0 .091.061.214.183.333 0 0-.425-.242-.759-.242-.425 0-.759.09-1.024.242-.425.242-.638.577-.638.759 0 .091.03.183.061.274.06.152.121.303.244.425.091.091.213.152.334.183.061.031.153.061.214.091.061.031.091.061.061.122-.031.061-.091.061-.152.061-.061 0-.122-.03-.183-.061-.122-.061-.213-.183-.244-.333-.031-.061-.031-.153-.031-.214 0-.214.061-.425.153-.638.061-.122.183-.244.334-.334.061-.061.122-.091.183-.122.061-.031.122-.031.183-.031.091 0 .153.031.244.061.061.031.091.031.122.031.031 0 .061-.03.122-.061.183-.122.334-.214.577-.244.425-.091.759-.061 1.024.03.244.091.425.213.577.334.061.061.091.122.091.183 0 .091-.061.214-.153.333-.061.061-.153.091-.244.091-.091 0-.153-.031-.214-.061-.183-.122-.334-.214-.577-.244-.121-.03-.304-.061-.425-.061-.122 0-.213.031-.304.061-.183.091-.334.214-.425.334-.061.061-.091.122-.061.183.031.061.091.091.153.091.061 0 .122-.03.183-.061.425-.242.971-.363 1.644-.242.334.061.607.214.971.425.091.061.122.122.122.183 0 .091-.031.183-.091.214-.061.031-.122.061-.183.061-.091 0-.153-.031-.244-.061z"/></svg>