<svg xmlns="http://www.w3.org/2000/svg" viewBox="0 0 24 24" width="14" height="14"><path fill="#47A248" d="M17.193 9.555c-1.264-5.58-4.252-7.414-4.573-8.115-.28-.394-.53-.954-.735-1.44-.036.495-.055.685-.523 1.184-.723.566-4.438 3.682-4.74 10.02-.282 5.912 4.103 9.435 4.7 9.88l.07-.05c.22-1.928 1.38-2.94 1.38-2.94l.355.18c.015.054.036.108.057.163 1.136 2.823 1.938 4.226 1.938 4.226l.035.052c.043.09.09.178.138.264.347.687.746 1.514.746 1.514l.326 1.65c.053.258.113.51.163.765l.006.022c.017.14.03.28.04.418.078 1.1.05 1.898-.023 2.29-.02.113-.044.22-.072.325l-.008.026c-.067.222-.136.43-.198.62-.04.133-.078.256-.114.37-.057.18-.11.348-.155.5-.033.117-.062.22-.086.31-.06.225-.103.386-.103.386s-.063-.13-.154-.336l-.02-.043c-.04-.08-.082-.168-.13-.264-.042-.084-.087-.174-.136-.268-.034-.066-.07-.135-.107-.206-.037-.07-.075-.142-.116-.215-.083-.146-.17-.295-.26-.446-.09-.152-.184-.305-.28-.458-.082-.128-.165-.257-.25-.386-.08-.12-.162-.24-.244-.358l-.005-.007c-.079-.113-.158-.226-.236-.336-.116-.164-.23-.323-.342-.476-.056-.076-.11-.15-.163-.222-.053-.072-.105-.143-.155-.212-.05-.07-.098-.138-.144-.204-.092-.132-.18-.256-.263-.37-.041-.057-.08-.112-.117-.164-.037-.053-.072-.104-.106-.153-.034-.05-.066-.097-.096-.142-.03-.045-.058-.087-.084-.127l-.003-.004c-.052-.078-.1-.15-.143-.217-.043-.067-.082-.128-.118-.183-.036-.056-.068-.107-.096-.153-.028-.046-.052-.087-.072-.122l-.003-.005c-.04-.07-.075-.133-.105-.19-.03-.057-.055-.107-.076-.15-.021-.043-.037-.08-.05-.11l-.003-.006c-.026-.056-.047-.101-.063-.136-.016-.035-.027-.06-.033-.075l-.003-.006c-.013-.027-.021-.044-.025-.052l-.002-.003-.002-.004c-.016-.033-.026-.052-.026-.052s.01.02.026.053l.002.003.002.004c.004.008.012.025.025.052l.003.006c.006.015.017.04.033.075.016.035.037.08.063.136l.003.006c.013.03.029.067.05.11.021.043.046.093.076.15.03.057.065.12.105.19l.003.005c.02.035.044.076.072.122.028.046.06.097.096.153.036.055.075.116.118.183.043.067.091.139.143.217l.003.004c.026.04.054.082.084.127.03.045.062.097.096.142.034.049.069.1.106.153.037.052.076.107.117.164.083.114.171.238.263.37.046.066.094.134.144.204.05.069.102.14.155.212.053.072.107.146.163.222.112.153.226.312.342.476.078.11.157.223.236.336l.005.007c.082.118.164.238.244.358.085.129.168.258.25.386.096.153.19.306.28.458.09.151.177.3.26.446.041.073.079.145.116.215.037.071.073.14.107.206.049.094.094.184.136.268.048.096.09.184.13.264l.02.043c.091.206.154.336.154.336s-.043-.161-.103-.386c-.024-.09-.053-.193-.086-.31-.045-.152-.098-.32-.155-.5-.036-.114-.074-.237-.114-.37-.062-.19-.131-.398-.198-.62l.008-.026c.028-.105.052-.212.072-.325.073-.392.101-1.19.023-2.29-.01-.138-.023-.278-.04-.418l-.006-.022c-.05-.255-.11-.507-.163-.765"/></svg>