<svg xmlns="http://www.w3.org/2000/svg" viewBox="0 0 24 24" width="14" height="14"><path fill="#4479A1" d="M16.405 5.501c-.085 0-.174.006-.268.018-.523.071-.887.29-1.005.448a.822.822 0 0 0-.085.087c-.092.09-.202.171-.33.242-.33.182-.804.314-1.3.391a10.12 10.12 0 0 1-.778.07c-.385.019-.79.028-1.196.028H1.692c-.384 0-.753.14-1.032.396-.285.258-.448.609-.448.975v10.133c0 .364.162.715.448.975.279.256.648.396 1.032.396h.842v.841c0 .207.084.406.232.553.148.146.35.229.56.229h.842c.21 0 .412-.083.56-.229.148-.147.232-.346.232-.553v-.841h1.684v.841c0 .207.084.406.232.553.148.146.35.229.56.229h.842c.21 0 .412-.083.56-.229.148-.147.232-.346.232-.553v-.841h.842c.384 0 .753-.14 1.032-.396.285-.26.448-.611.448-.975V6.472c0-.366-.163-.717-.448-.975a1.454 1.454 0 0 0-1.032-.396h-.842zm-.842 1.688c.077-.01.154-.015.232-.015h.842c.077 0 .152.028.21.08.058.052.09.123.09.196v10.133c0 .073-.032.144-.09.196a.296.296 0 0 1-.21.08h-.842a.296.296 0 0 1-.21-.08.277.277 0 0 1-.09-.196V7.189zm-1.684 1.348c-.052.063-.122.112-.206.142a.933.933 0 0 1-.28.043h-9.858a.933.933 0 0 1-.28-.043.56.56 0 0 1-.206-.142.533.533 0 0 1-.073-.278v-.59c0-.103.026-.204.073-.278a.56.56 0 0 1 .206-.142.933.933 0 0 1 .28-.043h9.858c.098 0 .194.015.28.043.084.03.154.079.206.142.047.074.073.175.073.278v.59a.533.533 0 0 1-.073.278z"/></svg>