<svg version="1.1" xmlns="http://www.w3.org/2000/svg"  width="14" viewBox="0 0 298 290"><path d="M0 0 C2.53199333 0.00321319 5.06287242 -0.0205792 7.59472656 -0.0456543 C9.2119126 -0.04792285 10.82910176 -0.04863286 12.44628906 -0.04760742 C13.19935333 -0.05681717 13.9524176 -0.06602692 14.728302 -0.07551575 C19.86424381 -0.02972193 19.86424381 -0.02972193 22.34008789 1.64135742 C25.11136424 6.12059692 24.20354215 13.22121044 23.37597656 18.31567383 C21.82106029 22.62836613 19.72310014 26.39237967 17.37597656 30.31567383 C16.36201534 32.30863209 15.35823899 34.30690293 14.37597656 36.31567383 C15.34535156 36.40204102 16.31472656 36.4884082 17.31347656 36.57739258 C46.50206521 39.49772264 70.62359634 53.37534066 89.46972656 75.80786133 C102.60899249 93.54587033 109.77587595 115.43403569 109.75097656 137.37817383 C109.75226563 138.55742432 109.75355469 139.7366748 109.75488281 140.95166016 C109.63980806 150.52574893 108.25368443 159.20721454 105.37597656 168.31567383 C104.38597656 168.31567383 103.39597656 168.31567383 102.37597656 168.31567383 C100.93914079 165.0638876 99.56155932 161.82532344 98.34472656 158.48364258 C91.39434086 139.27417463 91.39434086 139.27417463 76.37597656 126.31567383 C75.43625 125.7871582 74.49652344 125.25864258 73.52832031 124.71411133 C67.34340723 121.4057125 61.15161287 119.17955027 54.41894531 117.25708008 C51.63944398 116.397183 49.12599611 115.37160414 46.50097656 114.12817383 C41.34453714 111.7612836 36.92534124 110.60080298 31.37597656 112.31567383 C23.11650468 115.88262426 18.29841275 123.88891876 13.19628906 130.93676758 C12.59558594 131.72180664 11.99488281 132.5068457 11.37597656 133.31567383 C11.04597656 133.31567383 10.71597656 133.31567383 10.37597656 133.31567383 C10.04597656 141.56567383 9.71597656 149.81567383 9.37597656 158.31567383 C12.34597656 158.64567383 15.31597656 158.97567383 18.37597656 159.31567383 C20.38435852 159.95664679 22.38425474 160.6246683 24.37597656 161.31567383 C25.83397088 161.52636665 27.29235341 161.73437937 28.75097656 161.94067383 C34.39763668 163.00576241 39.01345714 165.50315177 44.0534668 168.13916016 C50.65050638 171.5539801 57.41226861 174.22033331 64.4362793 176.63720703 C65.7809548 177.10754727 67.11615419 177.60553666 68.44262695 178.125 C74.61034728 180.42918804 80.39038613 180.85149735 86.93847656 181.00317383 C87.94716797 181.03733398 88.95585937 181.07149414 89.99511719 181.10668945 C92.45529224 181.18830663 94.91514965 181.25773059 97.37597656 181.31567383 C97.78125554 191.53064412 87.70240076 201.90057243 81.37597656 209.31567383 C80.71210938 210.13680664 80.04824219 210.95793945 79.36425781 211.80395508 C64.81216626 229.09969421 42.62758521 239.62894709 20.37597656 242.31567383 C17.68153562 242.44398054 15.07492062 242.41752077 12.37597656 242.31567383 C12.44671387 242.97486816 12.51745117 243.6340625 12.59033203 244.31323242 C13.28049452 251.20879265 13.52875988 258.01336586 13.50097656 264.94067383 C13.50484375 265.91262695 13.50871094 266.88458008 13.51269531 267.88598633 C13.49076669 284.2008837 13.49076669 284.2008837 10.37597656 287.31567383 C8.52270508 287.49853516 8.52270508 287.49853516 6.25488281 287.39770508 C5.41183594 287.36201416 4.56878906 287.32632324 3.70019531 287.28955078 C2.78882813 287.23629639 1.87746094 287.18304199 0.93847656 287.12817383 C-0.00511719 287.07556396 -0.94871094 287.0229541 -1.92089844 286.96875 C-30.50483098 285.16312173 -58.38536407 277.59489409 -81.62402344 260.31567383 C-82.43250732 259.72496094 -82.43250732 259.72496094 -83.25732422 259.12231445 C-110.4647684 239.12937626 -129.58146525 212.39494021 -138.37402344 179.69067383 C-138.57286133 178.95163818 -138.77169922 178.21260254 -138.9765625 177.45117188 C-142.07239784 165.28687546 -143.03346604 153.25531633 -142.99902344 140.75317383 C-142.99847961 140.00721954 -142.99793579 139.26126526 -142.99737549 138.4927063 C-142.95690041 126.38499009 -142.08007184 114.98517059 -138.62402344 103.31567383 C-138.42035156 102.60282227 -138.21667969 101.8899707 -138.00683594 101.15551758 C-131.25262704 78.18286879 -118.04060543 58.51251162 -101.62402344 41.31567383 C-101.02847656 40.65696289 -100.43292969 39.99825195 -99.81933594 39.31958008 C-83.60851102 22.03035265 -60.98219134 10.98398645 -38.49902344 4.56567383 C-37.46189209 4.26741699 -37.46189209 4.26741699 -36.40380859 3.96313477 C-24.33860373 0.69226081 -12.42861763 -0.03309395 0 0 Z " fill="#EE4237" transform="translate(151.6240234375,1.684326171875)"/><path d="M0 0 C20.12307787 17.40085779 34.14283372 39.83130451 37.9453125 66.546875 C38.26087326 70.9048179 38.32526921 75.24096653 38.3203125 79.609375 C38.32160156 80.78862549 38.32289063 81.96787598 38.32421875 83.18286133 C38.209144 92.7569501 36.82302037 101.43841571 33.9453125 110.546875 C32.9553125 110.546875 31.9653125 110.546875 30.9453125 110.546875 C29.50847673 107.29508877 28.13089525 104.05652461 26.9140625 100.71484375 C19.9636768 81.5053758 19.9636768 81.5053758 4.9453125 68.546875 C4.00558594 68.01835938 3.06585938 67.48984375 2.09765625 66.9453125 C-4.08725684 63.63691367 -10.27905119 61.41075144 -17.01171875 59.48828125 C-19.79122009 58.62838417 -22.30466796 57.60280531 -24.9296875 56.359375 C-30.08612692 53.99248478 -34.50532282 52.83200415 -40.0546875 54.546875 C-48.31415938 58.11382543 -53.13225131 66.12011993 -58.234375 73.16796875 C-58.83507812 73.95300781 -59.43578125 74.73804688 -60.0546875 75.546875 C-60.3846875 75.546875 -60.7146875 75.546875 -61.0546875 75.546875 C-61.3846875 110.856875 -61.7146875 146.166875 -62.0546875 182.546875 C-76.22432159 182.546875 -76.22432159 182.546875 -83.3046875 180.984375 C-84.51439209 180.72092285 -84.51439209 180.72092285 -85.74853516 180.45214844 C-110.09265794 174.76181135 -133.70234426 158.79031647 -147.26953125 137.65429688 C-160.99351288 115.22676779 -168.86733653 87.28580329 -162.82568359 60.97387695 C-161.99398001 57.79789172 -161.04467665 54.67784414 -160.0546875 51.546875 C-159.75433594 50.49242188 -159.45398438 49.43796875 -159.14453125 48.3515625 C-155.28830036 35.56423411 -148.35253574 24.89302091 -140.0546875 14.546875 C-139.51457031 13.84046875 -138.97445312 13.1340625 -138.41796875 12.40625 C-123.7342923 -5.79115255 -99.03547496 -18.11412063 -76.09375 -21.2109375 C-48.70609821 -23.39350101 -21.84055967 -17.25820791 0 0 Z " fill="#EFEDED" transform="translate(223.0546875,59.453125)"/><path d="M0 0 C28.0989709 1.87326473 49.450888 9.2853697 70 29 C70.71027344 29.65871094 71.42054688 30.31742188 72.15234375 30.99609375 C88.55645189 46.6445424 99.53189009 71.64865562 100.3359375 94.28515625 C100.36504488 96.54412084 100.37756339 98.80334935 100.375 101.0625 C100.37628906 102.24175049 100.37757813 103.42100098 100.37890625 104.63598633 C100.2638315 114.2100751 98.87770787 122.89154071 96 132 C95.01 132 94.02 132 93 132 C91.56316423 128.74821377 90.18558275 125.50964961 88.96875 122.16796875 C82.0183643 102.9585008 82.0183643 102.9585008 67 90 C66.06027344 89.47148438 65.12054688 88.94296875 64.15234375 88.3984375 C57.96743066 85.09003867 51.77563631 82.86387644 45.04296875 80.94140625 C42.26346741 80.08150917 39.75001954 79.05593031 37.125 77.8125 C31.96856058 75.44560978 27.54936468 74.28512915 22 76 C12.9681843 79.90049622 7.56866392 89.30994029 2 97 C1.34 96.67 0.68 96.34 0 96 C0 64.32 0 32.64 0 0 Z " fill="#D1D1D2" transform="translate(161,38)"/><path d="M0 0 C8.8045538 6.16147137 15.68384117 14.54893715 18.26953125 25.06640625 C19.99543809 35.90126587 19.00458912 45.81375115 13.1484375 55.18359375 C6.72324941 64.00536229 -2.43501549 70.64182344 -13.30859375 72.71484375 C-26.17490879 73.65816733 -37.23949338 72.15411079 -47.34375 63.56640625 C-55.05027303 56.30419568 -60.65559203 47.79144397 -61.53125 36.9609375 C-61.88146894 25.03826675 -58.52436695 14.72121969 -50.52734375 5.70703125 C-36.84890407 -7.2426391 -16.35789722 -9.1061729 0 0 Z " fill="#FCFCFC" transform="translate(136.30859375,77.28515625)"/><path d="M0 0 C6.27335923 0.69703991 9.54342102 1.10690117 15 3 C16.45799432 3.21069282 17.91637685 3.41870554 19.375 3.625 C25.02166012 4.69008858 29.63748057 7.18747794 34.67749023 9.82348633 C41.27452981 13.23830628 48.03629205 15.90465949 55.06030273 18.3215332 C56.40497824 18.79187345 57.74017763 19.28986283 59.06665039 19.80932617 C65.23437071 22.11351421 71.01440957 22.53582352 77.5625 22.6875 C78.57119141 22.72166016 79.57988281 22.75582031 80.61914062 22.79101562 C83.07931568 22.87263281 85.53917309 22.94205676 88 23 C88.40527897 33.21497029 78.32642419 43.5848986 72 51 C71.33613281 51.82113281 70.67226562 52.64226562 69.98828125 53.48828125 C55.2622768 70.99072277 33.36045074 80.87993711 11 84 C7.37 84 3.74 84 0 84 C0 56.28 0 28.56 0 0 Z " fill="#424143" transform="translate(161,160)"/><path d="M0 0 C6.39927086 3.73140583 10.75654684 9.49874987 12.7734375 16.6171875 C13.84625884 25.11537902 12.55303156 31.49362813 7.7734375 38.6171875 C2.80516771 44.4549045 -3.03015004 47.9942737 -10.703125 48.9140625 C-18.91046989 49.33020956 -25.11269769 47.25071404 -31.30078125 41.78515625 C-36.82724095 35.91112047 -39.28599977 30.27398491 -39.7265625 22.2421875 C-39.49334309 15.22617018 -37.04445445 9.74752354 -32.359375 4.54296875 C-22.3214481 -4.77238364 -12.21423404 -5.55763349 0 0 Z " fill="#070707" transform="translate(138.2265625,85.3828125)"/><path d="M0 0 C0.74878418 0.29390625 1.49756836 0.5878125 2.26904297 0.890625 C4.43960329 1.75865877 6.59698367 2.6518899 8.75 3.5625 C9.39300049 3.83070557 10.03600098 4.09891113 10.69848633 4.37524414 C17.70488891 7.46894429 22.11621528 11.2474955 25.375 18.1875 C25.87773437 19.23292969 26.38046875 20.27835938 26.8984375 21.35546875 C28 24 28 24 28 26 C24.68331982 25.37251997 22.52860739 24.13478963 19.75 22.25 C14.64930386 19.09134669 9.54506971 17.42404826 3.83520508 15.76367188 C0.05455478 14.65998982 -3.50622003 13.4428867 -7.0625 11.75 C-12.14706238 9.39068602 -16.52732558 8.30882806 -22 10 C-31.0318157 13.90049622 -36.43133608 23.30994029 -42 31 C-42.66 30.67 -43.32 30.34 -44 30 C-44.14860594 25.80092955 -44.25732637 21.60326021 -44.32958984 17.40234375 C-44.35971791 15.97433814 -44.40063103 14.54651694 -44.45263672 13.11914062 C-44.52564914 11.0633399 -44.55948862 9.00998787 -44.5859375 6.953125 C-44.6173584 5.71723633 -44.6487793 4.48134766 -44.68115234 3.20800781 C-44 0 -44 0 -41.15478516 -2.35644531 C-27.21283104 -9.61981284 -13.74982137 -5.39783898 0 0 Z " fill="#464546" transform="translate(205,104)"/><path d="M0 0 C3.88804513 3.18112783 5.56848233 4.58608803 6.125 9.6875 C5.60010162 14.67403458 3.59310201 18.04741499 -0.25 21.25 C-3.95602135 22.48534045 -6.34753614 22.70528745 -10.25 22.25 C-14.07209946 19.86307623 -16.81170311 17.56489068 -18.25 13.25 C-18.65109454 8.99839783 -18.51378256 6.7493027 -16.5 2.9375 C-11.89412581 -2.56396084 -6.47775263 -3.48802065 0 0 Z " fill="#F2F2F2" transform="translate(137.25,93.75)"/><path d="M0 0 C5.50081679 0.48848952 9.58154945 2.04350835 14.4375 4.6875 C21.78364716 8.52511691 29.22088847 11.62408937 37.06030273 14.3215332 C38.40497824 14.79187345 39.74017763 15.28986283 41.06665039 15.80932617 C47.23437071 18.11351421 53.01440957 18.53582352 59.5625 18.6875 C60.57119141 18.72166016 61.57988281 18.75582031 62.61914062 18.79101562 C65.07931568 18.87263281 67.53917309 18.94205676 70 19 C70 19.66 70 20.32 70 21 C69.3702124 21.05534912 68.7404248 21.11069824 68.09155273 21.16772461 C65.20669312 21.42237236 62.32209868 21.67991392 59.4375 21.9375 C58.44685547 22.02451172 57.45621094 22.11152344 56.43554688 22.20117188 C51.26142607 22.66529567 46.14162945 23.24911847 41 24 C29.75777365 25.14598178 29.75777365 25.14598178 24.9375 21.625 C23.595405 20.44962487 22.28574494 19.23676418 21 18 C19.21076584 16.35152254 17.41891786 14.7058793 15.625 13.0625 C14.24248047 11.78246094 14.24248047 11.78246094 12.83203125 10.4765625 C9.34449104 7.42676872 5.66157903 4.82919298 1.80078125 2.27734375 C1.20652344 1.85582031 0.61226562 1.43429688 0 1 C0 0.67 0 0.34 0 0 Z " fill="#D1D1D3" transform="translate(179,164)"/></svg>