<svg xmlns="http://www.w3.org/2000/svg" viewBox="0 0 24 24" width="14" height="14"><path fill="currentColor" d="M14.23 12.004a2.236 2.236 0 0 1-2.235 2.236 2.236 2.236 0 0 1-2.236-2.236 2.236 2.236 0 0 1 2.235-2.236 2.236 2.236 0 0 1 2.236 2.236zm2.648-10.69c-1.346 0-3.107.96-4.888 2.622-1.994 1.774-3.927 4.1-5.1 5.852-.364.54-.648 1.014-.842 1.388a.825.825 0 0 0-.016.776c.09.2.21.416.354.637.767 1.177 2.702 3.504 5.1 5.852 1.78 1.663 3.542 2.623 4.888 2.623.812 0 1.488-.232 2.047-.683a2.244 2.244 0 0 0 .59-.844.816.816 0 0 0-.017-.78c-.09-.2-.21-.416-.354-.637a11.658 11.658 0 0 1-.825-1.385 13.252 13.252 0 0 1-4.276-4.276c.35-.494.74-1.01 1.156-1.528 1.773-1.993 4.1-3.926 5.852-5.1.54-.364 1.014-.648 1.388-.842a.825.825 0 0 0 .776-.016c.2-.09.416-.21.637-.354.472-.308.95-.667 1.385-.825a.816.816 0 0 0 .78-.017c.1-.045.19-.102.266-.171a2.247 2.247 0 0 0 .375-.47c.135-.197.238-.408.215-.64-.063-.616-.59-1.327-1.404-1.843-.807-.51-1.953-.788-3.215-.788zM9.662 2.458c-.453.433-.876.89-1.267 1.362-1.774 1.994-3.927 4.1-5.1 5.852-.364.54-.648 1.014-.842 1.388a.825.825 0 0 0-.016.776c.09.2.21.416.354.637.767 1.177 2.702 3.504 5.1 5.852 1.78 1.663 3.542 2.623 4.888 2.623.754 0 1.392-.204 1.913-.583.116-.085.22-.18.312-.283a2.243 2.243 0 0 0 .317-.778.816.816 0 0 0-.017-.78 11.107 11.107 0 0 1-.64-1.352c-.364-.54-.748-1.114-1.156-1.686-1.773-1.993-4.1-3.926-5.852-5.1-.54-.364-1.014-.648-1.388-.842a.825.825 0 0 0-.776-.016c-.2.09-.416.21-.637.354a11.658 11.658 0 0 0-1.385.825.816.816 0 0 0-.78.017 2.247 2.247 0 0 0-.47.375c-.197.135-.408.238-.64.215-.616.063-1.327.59-1.843 1.404-.51.807-.788 1.953-.788 3.215 0 1.346.96 3.107 2.622 4.888z"/></svg>